<?xml version="1.0" encoding="UTF-8" standalone="no"?>
<!-- Generator: Adobe Illustrator 25.4.1, SVG Export Plug-In . SVG Version: 6.00 Build 0)  -->

<svg
   version="1.1"
   id="Layer_1"
   x="0px"
   y="0px"
   viewBox="0 0 615.97998 321.53"
   xml:space="preserve"
   sodipodi:docname="ecp-logo.svg"
   inkscape:export-filename="ecp-logo.svg"
   inkscape:export-xdpi="96"
   inkscape:export-ydpi="96"
   inkscape:version="1.3.1 (9b9bdc1480, 2023-11-25, custom)"
   width="615.97998"
   height="321.53"
   xmlns:inkscape="http://www.inkscape.org/namespaces/inkscape"
   xmlns:sodipodi="http://sodipodi.sourceforge.net/DTD/sodipodi-0.dtd"
   xmlns="http://www.w3.org/2000/svg"
   xmlns:svg="http://www.w3.org/2000/svg"><defs
   id="defs37" /><sodipodi:namedview
   id="namedview37"
   pagecolor="#ffffff"
   bordercolor="#000000"
   borderopacity="0.25"
   inkscape:showpageshadow="2"
   inkscape:pageopacity="0.0"
   inkscape:pagecheckerboard="0"
   inkscape:deskcolor="#d1d1d1"
   showgrid="false"
   inkscape:zoom="0.796875"
   inkscape:cx="267.29412"
   inkscape:cy="153.09804"
   inkscape:window-width="1870"
   inkscape:window-height="1016"
   inkscape:window-x="0"
   inkscape:window-y="27"
   inkscape:window-maximized="1"
   inkscape:current-layer="Layer_1" />
<style
   type="text/css"
   id="style1">
	.st0{display:none;}
	.st1{display:inline;fill:url(#SVGID_1_);}
	.st2{display:inline;fill:url(#SVGID_00000101065825365132403570000013607281809931606410_);}
	.st3{display:inline;fill:url(#SVGID_00000037666003549388264480000014698890448026649482_);}
	.st4{display:inline;fill:#00A99D;}
	.st5{display:inline;}
	.st6{font-family:'MyriadPro-Regular';}
	.st7{font-size:36.696px;}
	.st8{fill:#534741;}
	.st9{opacity:0.2;}
	.st10{fill:url(#SVGID_00000070092242570668646100000009023368167982038700_);}
	.st11{display:inline;fill:#F15A24;}
	.st12{display:inline;opacity:0.3;fill:#3B00A0;}
	.st13{fill:none;stroke:#FFFFFF;stroke-width:1.6163;stroke-linecap:round;stroke-linejoin:round;stroke-miterlimit:10;}
	.st14{display:inline;opacity:0.5;fill:#FFFFFF;}
	.st15{fill:#00A99D;}
	.st16{display:inline;fill:#00A99D;stroke:#00A99D;stroke-width:3;stroke-miterlimit:10;}
	.st17{fill:#00A99D;stroke:#00A99D;stroke-width:4;stroke-miterlimit:10;}
</style>
<g
   class="st0"
   id="g9"
   transform="translate(-204.01,-346.54999)">
	<linearGradient
   id="SVGID_1_"
   gradientUnits="userSpaceOnUse"
   x1="423.6731"
   y1="421.38129"
   x2="584.32397"
   y2="421.38129">
		<stop
   offset="0"
   style="stop-color:#29ABE2"
   id="stop1" />
		<stop
   offset="0.4421"
   style="stop-color:#0071BC"
   id="stop2" />
		<stop
   offset="0.9733"
   style="stop-color:#2E3192"
   id="stop3" />
	</linearGradient>
	<path
   class="st1"
   d="m 557.68,336.79 c 8.88,7.09 15.54,15.73 19.98,25.94 4.44,10.21 6.66,20.8 6.66,31.78 0,12.38 -2.82,24.23 -8.47,35.52 -5.65,11.29 -14.08,20.33 -25.3,27.11 -4.99,2.88 -10.13,5.01 -15.42,6.37 -5.3,1.36 -10.69,2.22 -16.18,2.57 -5.49,0.35 -11,0.53 -16.53,0.53 h -65.08 v 40.54 h 19.39 v -21.03 c 0,-2.26 0.72,-3.93 2.16,-5.02 1.44,-1.09 3.02,-1.64 4.73,-1.64 1.71,0 3.29,0.55 4.73,1.64 1.44,1.09 2.16,2.77 2.16,5.02 v 27.81 c 0,1.87 -0.68,3.49 -2.04,4.85 -1.36,1.36 -2.98,2.05 -4.85,2.05 h -33.07 c -1.87,0 -3.49,-0.68 -4.85,-2.05 -1.36,-1.36 -2.04,-2.98 -2.04,-4.85 V 459.7 c 0,-2.02 0.58,-3.58 1.75,-4.67 1.17,-1.09 2.57,-1.71 4.21,-1.87 0.62,-0.23 1.28,-0.35 1.99,-0.35 h 61.81 c 1.95,0 3.93,0 5.96,0 1.95,0.08 3.93,0.12 5.96,0.12 6.85,0 13.61,-0.49 20.27,-1.46 6.66,-0.97 13.07,-3.29 19.22,-6.95 8.57,-5.45 15.03,-12.7 19.39,-21.73 4.36,-9.03 6.54,-18.5 6.54,-28.39 v -1.17 c -0.23,-10.28 -2.75,-19.92 -7.54,-28.92 -4.79,-9 -11.74,-16.07 -20.86,-21.21 -5.45,-2.96 -11.1,-4.85 -16.94,-5.67 -5.84,-0.82 -11.76,-1.23 -17.76,-1.23 h -3.27 c -22.28,0 -44.63,0.08 -67.06,0.23 v 84.47 h 40.31 c 4.13,0 8.25,0.04 12.39,0.12 4.13,0.16 8.25,0.23 12.38,0.23 4.13,0 8.26,-0.12 12.39,-0.35 7.24,-0.62 12.93,-3.43 17.06,-8.41 4.13,-4.98 6.19,-10.75 6.19,-17.29 0,-2.57 -0.35,-5.14 -1.05,-7.71 -1.32,-4.91 -3.49,-8.68 -6.49,-11.33 -3,-2.65 -6.54,-4.44 -10.63,-5.37 -4.09,-0.93 -8.43,-1.4 -13.03,-1.4 h -36.34 v 29.44 c 0,2.18 -0.72,3.84 -2.16,4.97 -1.44,1.13 -3.02,1.69 -4.73,1.69 -1.71,0 -3.29,-0.56 -4.73,-1.69 -1.44,-1.13 -2.16,-2.78 -2.16,-4.97 V 362.5 c 0,-1.87 0.68,-3.48 2.04,-4.85 1.36,-1.36 2.98,-2.04 4.85,-2.04 5.45,0 10.94,-0.04 16.47,-0.12 5.53,0 11.06,0 16.59,0 5.45,0 10.94,0.04 16.47,0.12 10.44,0.39 19.1,3.74 26,10.05 6.89,6.31 11,14.64 12.33,25 0.15,1.48 0.23,2.96 0.23,4.44 0,8.88 -2.55,16.96 -7.65,24.24 -5.1,7.28 -12.21,12.05 -21.32,14.31 -6.16,1.17 -12.54,1.75 -19.16,1.75 -4.44,0 -8.88,-0.12 -13.32,-0.35 -4.36,-0.23 -8.57,-0.35 -12.62,-0.35 h -46.5 c -1.87,-0.16 -3.58,-0.76 -5.14,-1.81 -1.56,-1.05 -2.34,-2.75 -2.34,-5.08 v -98.26 c 0,-1.87 0.68,-3.48 2.04,-4.85 1.36,-1.36 2.98,-2.04 4.85,-2.04 9.81,0 19.67,-0.12 29.56,-0.35 9.97,-0.23 19.9,-0.35 29.79,-0.35 9.19,0 18.34,0.2 27.46,0.58 14.97,0.62 28.41,5.37 40.32,14.25 z"
   id="path3"
   style="fill:url(#SVGID_1_)" />
	
		<linearGradient
   id="SVGID_00000011031928624278862800000005748461370940825990_"
   gradientUnits="userSpaceOnUse"
   x1="605.70532"
   y1="422.43301"
   x2="649.98572"
   y2="422.43301">
		<stop
   offset="0"
   style="stop-color:#29ABE2"
   id="stop4" />
		<stop
   offset="0.4421"
   style="stop-color:#0071BC"
   id="stop5" />
		<stop
   offset="0.9733"
   style="stop-color:#2E3192"
   id="stop6" />
	</linearGradient>
	<path
   style="display:inline;fill:url(#SVGID_00000011031928624278862800000005748461370940825990_)"
   d="m 643.09,403.62 c 1.87,0 3.48,0.68 4.85,2.04 1.36,1.36 2.05,2.94 2.05,4.73 v 103.52 c 0,1.87 -0.68,3.49 -2.05,4.85 -1.36,1.36 -2.98,2.05 -4.85,2.05 H 612.6 c -1.87,0 -3.49,-0.68 -4.85,-2.05 -1.36,-1.36 -2.04,-2.98 -2.04,-4.85 V 383.53 c 0,-1.87 0.68,-3.47 2.04,-4.79 1.36,-1.32 2.98,-1.99 4.85,-1.99 h 21.15 c 2.26,0 3.93,0.72 5.02,2.16 1.09,1.44 1.64,2.98 1.64,4.62 0,1.71 -0.55,3.29 -1.64,4.73 -1.09,1.44 -2.77,2.16 -5.02,2.16 h -14.37 v 116.72 h 16.94 v -89.85 h -8.41 c -2.18,0 -3.84,-0.7 -4.96,-2.1 -1.13,-1.4 -1.69,-2.96 -1.69,-4.67 0,-1.71 0.56,-3.29 1.69,-4.73 1.13,-1.44 2.78,-2.16 4.96,-2.16 h 15.18 z M 612.6,371.96 c -1.56,0 -2.9,-0.58 -4.03,-1.75 -1.13,-1.17 -1.69,-2.49 -1.69,-3.97 V 348.6 c 0,-1.56 0.56,-2.9 1.69,-4.03 1.13,-1.13 2.47,-1.69 4.03,-1.69 h 15.19 c 1.87,0 3.25,0.6 4.15,1.81 0.89,1.21 1.34,2.51 1.34,3.91 0,1.4 -0.45,2.71 -1.34,3.91 -0.9,1.21 -2.28,1.81 -4.15,1.81 h -9.46 v 6.19 h 19.04 v -25 h -15.42 c -1.87,0 -3.25,-0.6 -4.15,-1.81 -0.9,-1.21 -1.34,-2.51 -1.34,-3.91 0,-1.4 0.45,-2.71 1.34,-3.91 0.89,-1.21 2.28,-1.81 4.15,-1.81 h 21.15 c 1.56,0 2.9,0.57 4.03,1.69 1.13,1.13 1.69,2.47 1.69,4.03 v 36.45 c 0,1.48 -0.57,2.8 -1.69,3.97 -1.13,1.17 -2.47,1.75 -4.03,1.75 z"
   id="path6" />
	
		<linearGradient
   id="SVGID_00000054944202854194915970000007729391928132591524_"
   gradientUnits="userSpaceOnUse"
   x1="673.00409"
   y1="420.6217"
   x2="846.50659"
   y2="420.6217">
		<stop
   offset="0"
   style="stop-color:#29ABE2"
   id="stop7" />
		<stop
   offset="0.4421"
   style="stop-color:#0071BC"
   id="stop8" />
		<stop
   offset="0.9733"
   style="stop-color:#2E3192"
   id="stop9" />
	</linearGradient>
	<path
   style="display:inline;fill:url(#SVGID_00000054944202854194915970000007729391928132591524_)"
   d="m 821.97,461.57 c 7.55,8.02 15.07,16.05 22.55,24.07 1.32,1.48 1.99,3.12 1.99,4.91 0,1.71 -0.66,3.31 -1.99,4.79 -6.54,6.62 -13.94,11.72 -22.2,15.31 -8.26,3.58 -17.1,5.37 -26.52,5.37 h -1.64 c -18.54,-0.39 -35.32,-5.88 -50.36,-16.47 -10.83,-7.94 -19.38,-17.66 -25.65,-29.15 -6.27,-11.49 -10.15,-23.81 -11.62,-36.98 -0.47,-3.58 -0.7,-7.17 -0.7,-10.75 0,-13.24 3.19,-25.68 9.58,-37.33 6.38,-11.64 15.81,-20.62 28.27,-26.93 9.19,-4.21 18.69,-6.31 28.51,-6.31 7.63,0 15.15,1.25 22.55,3.74 7.4,2.49 14.1,6.15 20.1,10.98 2.02,-2.1 4.09,-4.24 6.19,-6.43 2.1,-2.02 4.21,-4.13 6.31,-6.31 -7.79,-7.01 -16.61,-12.4 -26.46,-16.18 -9.85,-3.78 -19.96,-5.67 -30.32,-5.67 -3.27,0 -6.54,0.2 -9.81,0.58 -25.08,3.82 -44.79,16.16 -59.12,37.04 -5.06,7.79 -8.78,16.2 -11.16,25.24 -2.38,9.04 -3.56,18.19 -3.56,27.46 v 2.69 c 0.23,9.58 1.73,18.97 4.5,28.16 2.76,9.19 6.91,17.68 12.44,25.47 5.61,7.87 12.48,14.41 20.62,19.63 8.14,5.22 16.96,8.57 26.46,10.05 2.18,0.16 4.28,0.58 6.31,1.28 2.02,0.7 3.39,2.03 4.09,3.97 0.15,0.55 0.23,1.09 0.23,1.64 0,1.32 -0.43,2.55 -1.28,3.68 -0.86,1.13 -1.95,2.01 -3.27,2.63 -1.48,0.55 -3.04,0.82 -4.67,0.82 -1.71,0 -3.43,-0.19 -5.14,-0.58 -11.53,-2.18 -22.1,-6.58 -31.72,-13.2 -9.62,-6.62 -17.74,-14.76 -24.36,-24.42 -6.15,-9.11 -10.71,-19 -13.67,-29.68 -2.96,-10.67 -4.44,-21.5 -4.44,-32.48 v -3.74 c 0.54,-14.25 3.58,-28 9.11,-41.24 5.53,-13.24 13.55,-24.69 24.07,-34.35 14.72,-12.85 31.78,-20.64 51.17,-23.37 4.21,-0.54 8.45,-0.82 12.74,-0.82 13.01,0 25.7,2.49 38.09,7.48 12.39,4.99 23.29,12.11 32.71,21.38 0.86,0.86 1.64,1.79 2.34,2.8 0.7,1.01 1.05,2.14 1.05,3.39 0,1.25 -0.37,2.39 -1.11,3.45 -0.74,1.05 -1.58,2.04 -2.51,2.98 -3.12,3.19 -6.19,6.35 -9.23,9.46 -3.12,3.19 -6.23,6.39 -9.35,9.58 -1.09,1.4 -2.45,2.45 -4.09,3.15 -0.62,0.23 -1.28,0.35 -1.99,0.35 -1.64,0 -3.25,-0.51 -4.85,-1.52 -1.6,-1.01 -3.06,-2.1 -4.38,-3.27 -0.16,-0.08 -0.27,-0.15 -0.35,-0.23 -4.91,-3.97 -10.38,-6.99 -16.42,-9.05 -6.04,-2.06 -12.21,-3.1 -18.52,-3.1 -9.42,0 -18.38,2.42 -26.87,7.24 -1.87,1.09 -3.66,2.3 -5.37,3.62 -6.7,5.61 -11.68,12.4 -14.96,20.39 -3.27,7.99 -4.91,16.26 -4.91,24.83 0,7.4 1.17,14.63 3.51,21.67 2.34,7.05 5.8,13.34 10.4,18.87 4.83,5.53 10.49,9.62 17,12.27 6.5,2.65 13.26,3.97 20.27,3.97 7.71,0 15.23,-1.44 22.55,-4.32 7.32,-2.88 13.71,-7.05 19.16,-12.5 1.48,-1.32 3.12,-1.98 4.91,-1.98 1.79,-0.01 3.39,0.65 4.79,1.97 z m -30.03,40.66 c 1.25,0.08 2.45,0.12 3.62,0.12 13.01,0 24.46,-4.09 34.35,-12.27 -4.36,-4.67 -8.76,-9.35 -13.2,-14.02 -6.47,5.22 -13.61,9.19 -21.44,11.92 -7.83,2.73 -15.83,4.09 -24.01,4.09 -5.92,0 -11.8,-0.74 -17.64,-2.22 11.68,7.55 24.46,11.68 38.32,12.38 z"
   id="path9" />
</g>
<g
   class="st0"
   id="g10"
   transform="translate(-204.01,-346.54999)">
	<rect
   x="287.48001"
   y="825.5"
   class="st4"
   width="100"
   height="50"
   id="rect9" />
	<text
   transform="translate(404.979,864.2383)"
   class="st5 st6 st7"
   id="text9">= Color code : 00a99d</text>
</g>
<g
   id="g35"
   transform="translate(-204.01,-346.54999)">
	<g
   id="g25">
		<path
   class="st8"
   d="m 245.32,654.99 c -0.67,-0.05 -1.21,-0.32 -1.63,-0.79 -0.41,-0.48 -0.62,-1.05 -0.62,-1.72 v -44.65 c 0,-0.72 0.25,-1.31 0.74,-1.76 0.49,-0.45 1.09,-0.68 1.78,-0.68 h 22.13 c 0.67,0 1.24,0.23 1.71,0.7 0.47,0.47 0.7,1.05 0.7,1.74 0,0.67 -0.23,1.25 -0.7,1.72 -0.47,0.48 -1.03,0.72 -1.71,0.72 h -19.77 v 17.56 h 14.57 c 0.7,-0.03 1.28,0.2 1.74,0.68 0.47,0.48 0.7,1.05 0.7,1.72 0,0.67 -0.23,1.23 -0.7,1.69 -0.47,0.45 -1.05,0.68 -1.74,0.68 h -14.57 v 17.56 h 19.77 c 0.67,0 1.24,0.23 1.71,0.7 0.47,0.47 0.7,1.03 0.7,1.71 0,0.7 -0.23,1.29 -0.7,1.76 -0.47,0.48 -1.03,0.7 -1.71,0.68 h -22.4 z"
   id="path10" />
		<path
   class="st8"
   d="m 281.09,624.49 c 1.71,-1.86 3.72,-3.33 6.05,-4.4 2.33,-1.07 4.84,-1.61 7.56,-1.61 2.56,0 4.95,0.48 7.19,1.45 2.23,0.97 4.19,2.29 5.85,3.95 1.67,1.67 2.98,3.63 3.95,5.89 0.97,2.26 1.45,4.67 1.45,7.23 0,2.53 -0.48,4.92 -1.45,7.17 -0.97,2.25 -2.29,4.2 -3.95,5.87 -1.67,1.67 -3.62,2.98 -5.85,3.95 -2.24,0.97 -4.63,1.45 -7.19,1.45 -2.71,0 -5.23,-0.53 -7.56,-1.59 -2.33,-1.06 -4.34,-2.52 -6.05,-4.38 v 16.2 c 0,0.67 -0.24,1.24 -0.72,1.71 -0.48,0.47 -1.05,0.7 -1.72,0.7 -0.67,0 -1.25,-0.23 -1.72,-0.7 -0.47,-0.47 -0.72,-1.03 -0.72,-1.71 v -44.8 c 0,-0.7 0.24,-1.27 0.72,-1.72 0.48,-0.45 1.05,-0.68 1.72,-0.68 0.67,0 1.25,0.23 1.72,0.68 0.48,0.45 0.72,1.03 0.72,1.72 z m 0,12.52 c 0,1.86 0.35,3.61 1.07,5.25 0.71,1.64 1.67,3.08 2.89,4.3 1.21,1.23 2.65,2.2 4.3,2.93 1.65,0.72 3.44,1.09 5.35,1.09 1.91,0 3.69,-0.36 5.35,-1.09 1.65,-0.72 3.09,-1.7 4.32,-2.93 1.23,-1.23 2.19,-2.66 2.89,-4.3 0.7,-1.64 1.05,-3.39 1.05,-5.25 0,-1.89 -0.35,-3.66 -1.05,-5.31 -0.7,-1.65 -1.66,-3.09 -2.89,-4.32 -1.23,-1.23 -2.67,-2.2 -4.32,-2.91 -1.65,-0.71 -3.44,-1.07 -5.35,-1.07 -1.89,0 -3.66,0.36 -5.31,1.07 -1.65,0.71 -3.09,1.68 -4.32,2.91 -1.23,1.23 -2.2,2.67 -2.91,4.32 -0.71,1.66 -1.07,3.43 -1.07,5.31 z"
   id="path11" />
		<path
   class="st8"
   d="m 319.04,608.02 c 0.57,-0.57 1.25,-0.85 2.05,-0.85 0.83,0 1.54,0.28 2.13,0.85 0.59,0.57 0.89,1.28 0.89,2.13 0,0.77 -0.3,1.45 -0.89,2.03 -0.59,0.58 -1.3,0.87 -2.13,0.87 -0.8,0 -1.49,-0.29 -2.05,-0.87 -0.57,-0.58 -0.85,-1.26 -0.85,-2.03 -0.01,-0.85 0.28,-1.56 0.85,-2.13 z m 4.53,44.49 c 0,0.7 -0.24,1.28 -0.72,1.76 -0.48,0.48 -1.05,0.72 -1.72,0.72 -0.67,0 -1.25,-0.24 -1.72,-0.72 -0.48,-0.48 -0.72,-1.07 -0.72,-1.76 v -31.59 c 0,-0.67 0.25,-1.25 0.74,-1.72 0.49,-0.48 1.07,-0.72 1.74,-0.72 0.67,0 1.24,0.24 1.7,0.72 0.47,0.48 0.7,1.05 0.7,1.72 z"
   id="path12" />
		<path
   class="st8"
   d="m 334.03,636.82 -0.08,0.15 0.04,0.08 0.04,0.04 c 0,1.76 0.33,3.44 0.99,5.04 0.66,1.6 1.57,3.02 2.73,4.24 1.16,1.23 2.54,2.22 4.13,2.97 1.59,0.75 3.31,1.12 5.17,1.12 1.7,0.03 3.32,-0.22 4.84,-0.74 1.52,-0.52 2.95,-1.37 4.26,-2.56 0.26,-0.21 0.53,-0.4 0.81,-0.58 0.28,-0.18 0.59,-0.31 0.91,-0.39 0.32,-0.08 0.66,-0.08 1.03,0 0.36,0.08 0.74,0.29 1.12,0.62 0.52,0.47 0.77,1.05 0.77,1.76 0,0.71 -0.3,1.36 -0.89,1.96 -1.55,1.55 -3.42,2.75 -5.62,3.61 -2.2,0.85 -4.47,1.28 -6.82,1.28 -2.53,0 -4.92,-0.47 -7.15,-1.42 -2.23,-0.94 -4.19,-2.23 -5.85,-3.88 -1.67,-1.64 -2.98,-3.57 -3.95,-5.79 -0.97,-2.22 -1.45,-4.6 -1.45,-7.13 l 0.08,-0.23 c -0.05,-0.05 -0.08,-0.1 -0.08,-0.15 0,-2.53 0.48,-4.92 1.45,-7.15 0.97,-2.23 2.29,-4.19 3.95,-5.85 1.67,-1.67 3.62,-2.98 5.85,-3.95 2.23,-0.97 4.62,-1.45 7.15,-1.45 2.35,0 4.62,0.43 6.82,1.28 2.2,0.85 4.07,2.05 5.62,3.6 0.59,0.59 0.89,1.25 0.89,1.96 0,0.71 -0.27,1.31 -0.81,1.8 -0.39,0.34 -0.76,0.54 -1.1,0.62 -0.35,0.08 -0.68,0.08 -1.01,0 -0.32,-0.08 -0.63,-0.21 -0.91,-0.39 -0.28,-0.18 -0.56,-0.38 -0.81,-0.58 -1.32,-1.16 -2.74,-2.02 -4.26,-2.56 -1.52,-0.54 -3.14,-0.8 -4.84,-0.77 -1.83,0.03 -3.54,0.41 -5.12,1.14 -1.58,0.74 -2.95,1.72 -4.13,2.96 -1.18,1.24 -2.1,2.67 -2.77,4.28 -0.66,1.62 -1,3.3 -1,5.06 z"
   id="path13" />
		<path
   class="st8"
   d="m 425.38,614.22 c 0,0.65 -0.23,1.21 -0.7,1.7 -0.49,0.47 -1.08,0.7 -1.76,0.72 -0.68,0.01 -1.25,-0.21 -1.69,-0.68 -2.04,-2.02 -4.3,-3.53 -6.78,-4.53 -2.48,-1.01 -5.05,-1.51 -7.71,-1.51 -2.79,0 -5.42,0.53 -7.89,1.59 -2.47,1.06 -4.62,2.51 -6.45,4.34 -1.83,1.83 -3.28,3.99 -4.34,6.47 -1.06,2.48 -1.59,5.13 -1.59,7.94 0,2.71 0.51,5.3 1.53,7.75 1.02,2.46 2.43,4.61 4.22,6.47 1.8,1.86 3.93,3.34 6.39,4.44 2.47,1.1 5.15,1.65 8.04,1.65 2.66,0.03 5.22,-0.43 7.67,-1.36 2.45,-0.93 4.71,-2.43 6.78,-4.5 0.49,-0.47 1.07,-0.7 1.74,-0.72 0.67,-0.01 1.24,0.2 1.71,0.64 0.49,0.47 0.73,1.05 0.72,1.74 -0.01,0.7 -0.24,1.27 -0.68,1.7 -2.53,2.53 -5.34,4.4 -8.41,5.6 -3.07,1.2 -6.25,1.8 -9.53,1.8 -2.3,0 -4.52,-0.3 -6.67,-0.91 -2.14,-0.61 -4.15,-1.45 -6.01,-2.54 -1.86,-1.09 -3.55,-2.4 -5.08,-3.93 -1.52,-1.54 -2.83,-3.24 -3.91,-5.12 -1.09,-1.87 -1.93,-3.88 -2.52,-6.03 -0.59,-2.14 -0.89,-4.38 -0.89,-6.7 0,-2.2 0.28,-4.35 0.85,-6.47 0.57,-2.12 1.38,-4.11 2.42,-5.97 1.05,-1.86 2.32,-3.58 3.82,-5.15 1.5,-1.58 3.18,-2.93 5.06,-4.07 1.87,-1.14 3.9,-2.02 6.08,-2.65 2.18,-0.63 4.5,-0.95 6.96,-0.95 3.26,0 6.43,0.63 9.51,1.9 3.09,1.27 5.87,3.14 8.35,5.62 0.51,0.51 0.76,1.08 0.76,1.72 z"
   id="path14" />
		<path
   class="st8"
   d="m 430.16,629.78 c 0.97,-2.26 2.29,-4.22 3.97,-5.89 1.68,-1.67 3.64,-2.98 5.89,-3.95 2.25,-0.97 4.64,-1.45 7.17,-1.45 2.56,0 4.95,0.48 7.19,1.45 2.23,0.97 4.19,2.29 5.85,3.95 1.67,1.67 2.98,3.63 3.95,5.89 0.97,2.26 1.45,4.67 1.45,7.23 0,2.53 -0.48,4.92 -1.45,7.17 -0.97,2.25 -2.29,4.2 -3.95,5.87 -1.67,1.67 -3.62,2.98 -5.85,3.95 -2.24,0.97 -4.63,1.45 -7.19,1.45 -2.53,0 -4.92,-0.48 -7.17,-1.45 -2.25,-0.97 -4.21,-2.29 -5.89,-3.95 -1.68,-1.67 -3,-3.62 -3.97,-5.87 -0.97,-2.25 -1.45,-4.64 -1.45,-7.17 0,-2.56 0.48,-4.96 1.45,-7.23 z m 4.5,12.48 c 0.71,1.64 1.67,3.08 2.89,4.3 1.21,1.23 2.65,2.2 4.3,2.93 1.65,0.72 3.44,1.09 5.35,1.09 1.91,0 3.69,-0.36 5.35,-1.09 1.65,-0.72 3.09,-1.7 4.32,-2.93 1.23,-1.23 2.19,-2.66 2.89,-4.3 0.7,-1.64 1.05,-3.39 1.05,-5.25 0,-1.89 -0.35,-3.66 -1.05,-5.31 -0.7,-1.65 -1.66,-3.09 -2.89,-4.32 -1.23,-1.23 -2.67,-2.2 -4.32,-2.91 -1.65,-0.71 -3.44,-1.07 -5.35,-1.07 -1.89,0 -3.66,0.36 -5.31,1.07 -1.65,0.71 -3.09,1.68 -4.32,2.91 -1.23,1.23 -2.2,2.67 -2.91,4.32 -0.71,1.65 -1.07,3.42 -1.07,5.31 0,1.86 0.36,3.61 1.07,5.25 z"
   id="path15" />
		<path
   class="st8"
   d="m 502.88,652.59 c 0,0.7 -0.23,1.28 -0.7,1.74 -0.47,0.47 -1.05,0.7 -1.76,0.7 -0.68,0 -1.25,-0.23 -1.72,-0.7 -0.47,-0.47 -0.7,-1.05 -0.7,-1.74 v -16.37 c -0.05,-4.13 -0.98,-7.3 -2.77,-9.5 -1.8,-2.21 -4.31,-3.31 -7.54,-3.31 -1.58,0 -3.06,0.31 -4.44,0.93 -1.38,0.62 -2.6,1.48 -3.64,2.57 -1.05,1.1 -1.88,2.39 -2.5,3.89 -0.62,1.5 -0.96,3.11 -1.01,4.84 v 16.88 c 0,0.7 -0.24,1.28 -0.72,1.76 -0.48,0.48 -1.05,0.72 -1.72,0.72 -0.67,0 -1.25,-0.24 -1.72,-0.72 -0.48,-0.48 -0.72,-1.07 -0.72,-1.76 v -31.59 c 0,-0.67 0.25,-1.25 0.74,-1.72 0.49,-0.48 1.07,-0.72 1.74,-0.72 0.67,0 1.24,0.24 1.7,0.72 0.47,0.48 0.7,1.05 0.7,1.72 l 0.01,4.15 c 1.53,-1.96 3.33,-3.55 5.41,-4.75 2.08,-1.2 4.31,-1.8 6.69,-1.8 2.22,0 4.24,0.41 6.03,1.24 1.8,0.83 3.34,2.01 4.62,3.55 1.28,1.54 2.26,3.4 2.95,5.58 0.69,2.18 1.04,4.62 1.07,7.31 z"
   id="path16" />
		<path
   class="st8"
   d="m 518.5,618.53 h 5.15 c 0.7,0 1.28,0.23 1.74,0.7 0.46,0.47 0.7,1.03 0.7,1.71 0,0.72 -0.23,1.32 -0.7,1.78 -0.47,0.46 -1.05,0.7 -1.74,0.7 h -5.15 v 29.18 c 0,0.67 -0.24,1.24 -0.72,1.71 -0.48,0.47 -1.05,0.7 -1.72,0.7 -0.67,0 -1.24,-0.23 -1.71,-0.7 -0.47,-0.47 -0.7,-1.03 -0.7,-1.71 v -29.18 h -4.26 c -0.67,0 -1.25,-0.24 -1.72,-0.72 -0.48,-0.48 -0.72,-1.07 -0.72,-1.76 0,-0.67 0.24,-1.24 0.72,-1.71 0.48,-0.47 1.05,-0.7 1.72,-0.7 h 4.26 v -10.74 c 0,-0.7 0.23,-1.27 0.7,-1.72 0.47,-0.45 1.03,-0.68 1.71,-0.68 0.67,0 1.25,0.23 1.72,0.68 0.48,0.45 0.72,1.03 0.72,1.72 z"
   id="path17" />
		<path
   class="st8"
   d="m 535.51,624.92 c 1.76,-1.99 3.86,-3.57 6.32,-4.73 2.45,-1.16 5.1,-1.74 7.94,-1.74 h 0.31 c 0.83,0 1.46,0.23 1.9,0.68 0.44,0.46 0.66,1.04 0.66,1.74 0,0.73 -0.25,1.32 -0.74,1.78 -0.49,0.46 -1.1,0.68 -1.82,0.68 h -0.31 c -1.94,0 -3.77,0.38 -5.5,1.12 -1.73,0.75 -3.24,1.78 -4.54,3.08 -1.29,1.31 -2.32,2.84 -3.08,4.59 -0.76,1.76 -1.14,3.64 -1.14,5.66 v 14.73 c 0,0.7 -0.23,1.28 -0.7,1.76 -0.47,0.48 -1.03,0.72 -1.71,0.72 -0.67,0 -1.25,-0.24 -1.74,-0.72 -0.49,-0.48 -0.74,-1.07 -0.74,-1.77 v -31.62 c 0,-0.67 0.24,-1.25 0.74,-1.73 0.49,-0.48 1.07,-0.72 1.74,-0.72 0.7,0 1.27,0.24 1.72,0.72 0.45,0.48 0.68,1.05 0.68,1.72 v 4.05 z"
   id="path18" />
		<path
   class="st8"
   d="m 554.56,629.78 c 0.97,-2.26 2.29,-4.22 3.97,-5.89 1.68,-1.67 3.64,-2.98 5.89,-3.95 2.25,-0.97 4.64,-1.45 7.17,-1.45 2.56,0 4.95,0.48 7.19,1.45 2.24,0.97 4.19,2.29 5.85,3.95 1.67,1.67 2.98,3.63 3.95,5.89 0.97,2.26 1.45,4.67 1.45,7.23 0,2.53 -0.49,4.92 -1.45,7.17 -0.97,2.25 -2.29,4.2 -3.95,5.87 -1.67,1.67 -3.62,2.98 -5.85,3.95 -2.24,0.97 -4.63,1.45 -7.19,1.45 -2.53,0 -4.92,-0.48 -7.17,-1.45 -2.25,-0.97 -4.21,-2.29 -5.89,-3.95 -1.68,-1.67 -3,-3.62 -3.97,-5.87 -0.97,-2.25 -1.45,-4.64 -1.45,-7.17 0,-2.56 0.48,-4.96 1.45,-7.23 z m 4.5,12.48 c 0.71,1.64 1.67,3.08 2.89,4.3 1.21,1.23 2.65,2.2 4.3,2.93 1.65,0.72 3.44,1.09 5.35,1.09 1.91,0 3.7,-0.36 5.35,-1.09 1.65,-0.72 3.09,-1.7 4.32,-2.93 1.23,-1.23 2.19,-2.66 2.89,-4.3 0.7,-1.64 1.05,-3.39 1.05,-5.25 0,-1.89 -0.35,-3.66 -1.05,-5.31 -0.7,-1.65 -1.66,-3.09 -2.89,-4.32 -1.23,-1.23 -2.67,-2.2 -4.32,-2.91 -1.65,-0.71 -3.44,-1.07 -5.35,-1.07 -1.89,0 -3.66,0.36 -5.31,1.07 -1.65,0.71 -3.09,1.68 -4.32,2.91 -1.23,1.23 -2.2,2.67 -2.91,4.32 -0.71,1.65 -1.07,3.42 -1.07,5.31 0,1.86 0.36,3.61 1.07,5.25 z"
   id="path19" />
		<path
   class="st8"
   d="m 600.55,652.59 c 0,0.67 -0.24,1.24 -0.72,1.71 -0.48,0.47 -1.05,0.7 -1.72,0.7 -0.67,0 -1.25,-0.23 -1.72,-0.7 -0.48,-0.47 -0.72,-1.03 -0.72,-1.71 v -44.8 c 0,-0.7 0.24,-1.27 0.72,-1.72 0.48,-0.45 1.05,-0.68 1.72,-0.68 0.67,0 1.25,0.23 1.72,0.68 0.48,0.45 0.72,1.03 0.72,1.72 z"
   id="path20" />
		<path
   class="st8"
   d="m 631.78,633.64 v 18.95 c 0,0.67 -0.24,1.24 -0.72,1.71 -0.48,0.47 -1.05,0.7 -1.72,0.7 -0.67,0 -1.25,-0.23 -1.72,-0.7 -0.48,-0.47 -0.72,-1.03 -0.72,-1.71 v -44.8 c 0,-0.7 0.24,-1.27 0.72,-1.72 0.48,-0.45 1.05,-0.68 1.72,-0.68 h 13.02 c 2.04,0 3.95,0.36 5.74,1.09 1.78,0.72 3.33,1.72 4.65,2.98 1.32,1.27 2.36,2.76 3.12,4.5 0.76,1.73 1.14,3.6 1.14,5.62 0,2.01 -0.38,3.88 -1.14,5.6 -0.76,1.72 -1.8,3.2 -3.12,4.46 -1.32,1.25 -2.87,2.24 -4.65,2.94 -1.78,0.71 -3.7,1.07 -5.74,1.07 h -10.58 z m 0,-23.45 v 18.56 h 10.62 c 1.4,0 2.69,-0.25 3.88,-0.76 1.19,-0.5 2.22,-1.18 3.08,-2.04 0.87,-0.85 1.54,-1.84 2.03,-2.96 0.49,-1.12 0.74,-2.31 0.74,-3.55 0,-1.32 -0.25,-2.54 -0.76,-3.66 -0.5,-1.12 -1.19,-2.1 -2.05,-2.93 -0.86,-0.83 -1.9,-1.48 -3.1,-1.96 -1.2,-0.48 -2.5,-0.72 -3.89,-0.72 h -10.55 z"
   id="path21" />
		<path
   class="st8"
   d="m 659.03,637.03 c 0,-2.55 0.49,-4.96 1.45,-7.22 0.97,-2.26 2.29,-4.22 3.97,-5.88 1.68,-1.66 3.64,-2.98 5.89,-3.95 2.25,-0.97 4.64,-1.45 7.17,-1.45 2.53,0 4.91,0.48 7.13,1.43 2.22,0.96 4.17,2.25 5.83,3.89 1.67,1.64 2.98,3.57 3.95,5.79 0.97,2.22 1.48,4.59 1.53,7.12 v 15.72 c 0,0.7 -0.24,1.29 -0.72,1.78 -0.48,0.49 -1.07,0.73 -1.76,0.73 -0.7,0 -1.27,-0.25 -1.72,-0.74 -0.45,-0.49 -0.68,-1.09 -0.68,-1.78 l -0.04,-3.33 c -1.71,1.89 -3.71,3.41 -6.03,4.57 -2.31,1.16 -4.81,1.74 -7.5,1.74 -2.53,0 -4.92,-0.48 -7.17,-1.45 -2.25,-0.97 -4.21,-2.28 -5.89,-3.95 -1.68,-1.66 -3,-3.62 -3.97,-5.86 -0.96,-2.24 -1.44,-4.63 -1.44,-7.16 z m 4.88,-0.02 c 0,1.86 0.35,3.61 1.07,5.25 0.71,1.64 1.67,3.08 2.89,4.3 1.21,1.23 2.65,2.2 4.3,2.93 1.65,0.72 3.44,1.09 5.35,1.09 1.91,0 3.7,-0.36 5.35,-1.09 1.65,-0.72 3.09,-1.7 4.3,-2.93 1.21,-1.23 2.17,-2.66 2.87,-4.3 0.7,-1.64 1.05,-3.39 1.05,-5.25 0,-1.89 -0.35,-3.66 -1.05,-5.31 -0.7,-1.65 -1.65,-3.09 -2.87,-4.32 -1.22,-1.23 -2.65,-2.2 -4.3,-2.91 -1.65,-0.71 -3.44,-1.07 -5.35,-1.07 -1.89,0 -3.66,0.36 -5.31,1.07 -1.65,0.71 -3.09,1.68 -4.32,2.91 -1.23,1.23 -2.2,2.67 -2.91,4.32 -0.72,1.66 -1.07,3.43 -1.07,5.31 z"
   id="path22" />
		<path
   class="st8"
   d="m 735.37,652.59 c 0,0.7 -0.23,1.28 -0.7,1.74 -0.47,0.47 -1.06,0.7 -1.76,0.7 -0.68,0 -1.25,-0.23 -1.72,-0.7 -0.47,-0.47 -0.7,-1.05 -0.7,-1.74 v -16.37 c -0.05,-4.13 -0.98,-7.3 -2.77,-9.5 -1.8,-2.21 -4.31,-3.31 -7.54,-3.31 -1.58,0 -3.06,0.31 -4.44,0.93 -1.38,0.62 -2.6,1.48 -3.64,2.57 -1.05,1.1 -1.88,2.39 -2.5,3.89 -0.62,1.5 -0.96,3.11 -1.01,4.84 v 16.88 c 0,0.7 -0.24,1.28 -0.72,1.76 -0.48,0.48 -1.05,0.72 -1.72,0.72 -0.67,0 -1.25,-0.24 -1.72,-0.72 -0.48,-0.48 -0.72,-1.07 -0.72,-1.76 v -31.59 c 0,-0.67 0.25,-1.25 0.74,-1.72 0.49,-0.48 1.07,-0.72 1.74,-0.72 0.67,0 1.24,0.24 1.71,0.72 0.47,0.48 0.7,1.05 0.7,1.72 l 0.01,4.15 c 1.53,-1.96 3.33,-3.55 5.41,-4.75 2.08,-1.2 4.31,-1.8 6.69,-1.8 2.22,0 4.23,0.41 6.03,1.24 1.8,0.83 3.34,2.01 4.62,3.55 1.28,1.54 2.26,3.4 2.95,5.58 0.69,2.18 1.04,4.62 1.07,7.31 v 16.38 z"
   id="path23" />
		<path
   class="st8"
   d="m 745.91,639.22 c 0.21,1.63 0.69,3.14 1.45,4.53 0.76,1.4 1.72,2.61 2.89,3.64 1.16,1.03 2.49,1.85 3.99,2.44 1.5,0.6 3.09,0.89 4.77,0.89 2.07,0 3.94,-0.39 5.62,-1.18 1.68,-0.79 3.06,-1.84 4.15,-3.16 0.44,-0.36 0.86,-0.58 1.26,-0.64 0.4,-0.06 0.79,-0.03 1.18,0.1 0.47,0.15 0.83,0.48 1.08,0.97 0.36,0.44 0.54,0.97 0.52,1.59 -0.01,0.62 -0.32,1.19 -0.91,1.71 -0.7,0.78 -1.49,1.49 -2.36,2.13 -0.88,0.65 -1.85,1.21 -2.93,1.69 -1.07,0.48 -2.24,0.85 -3.51,1.12 -1.27,0.27 -2.64,0.41 -4.11,0.41 -2.56,0 -4.95,-0.48 -7.19,-1.45 -2.24,-0.97 -4.19,-2.29 -5.87,-3.95 -1.68,-1.67 -3,-3.62 -3.97,-5.87 -0.97,-2.25 -1.45,-4.65 -1.45,-7.21 0,-2.56 0.49,-4.95 1.45,-7.19 0.97,-2.23 2.29,-4.19 3.97,-5.85 1.68,-1.67 3.64,-2.98 5.87,-3.95 2.23,-0.97 4.63,-1.45 7.19,-1.45 2.53,0 4.92,0.48 7.17,1.43 2.25,0.96 4.2,2.26 5.87,3.91 1.67,1.65 2.99,3.6 3.97,5.83 0.98,2.24 1.49,4.62 1.51,7.15 0,0.67 -0.22,1.23 -0.66,1.69 -0.44,0.45 -1.01,0.68 -1.71,0.68 h -29.24 z m 26.63,-4.11 c -0.18,-1.68 -0.65,-3.25 -1.41,-4.71 -0.76,-1.46 -1.74,-2.73 -2.95,-3.8 -1.2,-1.07 -2.58,-1.91 -4.13,-2.52 -1.55,-0.61 -3.2,-0.91 -4.96,-0.91 -1.76,0 -3.4,0.31 -4.94,0.93 -1.54,0.62 -2.9,1.47 -4.09,2.54 -1.19,1.07 -2.16,2.34 -2.91,3.8 -0.75,1.46 -1.2,3.02 -1.36,4.67 z"
   id="path24" />
		<path
   class="st8"
   d="m 788,652.59 c 0,0.67 -0.24,1.24 -0.72,1.71 -0.48,0.47 -1.05,0.7 -1.72,0.7 -0.67,0 -1.25,-0.23 -1.72,-0.7 -0.48,-0.47 -0.72,-1.03 -0.72,-1.71 v -44.8 c 0,-0.7 0.24,-1.27 0.72,-1.72 0.48,-0.45 1.05,-0.68 1.72,-0.68 0.67,0 1.25,0.23 1.72,0.68 0.48,0.45 0.72,1.03 0.72,1.72 z"
   id="path25" />
	</g>
	<g
   id="g32">
		<g
   class="st9"
   id="g26">
			
				<radialGradient
   id="SVGID_00000181081647568406153000000012730514822195275648_"
   cx="367.18469"
   cy="648.30353"
   r="127.3894"
   gradientTransform="matrix(2.7333,0,0,0.0881,-491.6434,510.0002)"
   gradientUnits="userSpaceOnUse">
				<stop
   offset="0"
   style="stop-color:#000000"
   id="stop25" />
				<stop
   offset="1"
   style="stop-color:#000000;stop-opacity:0"
   id="stop26" />
			</radialGradient>
			<path
   style="fill:url(#SVGID_00000181081647568406153000000012730514822195275648_)"
   d="m 819.99,567.11 c 0,6.79 -137.89,12.29 -307.99,12.29 -170.1,0 -307.99,-5.5 -307.99,-12.29 0,-6.79 137.89,-12.29 307.99,-12.29 170.1,0 307.99,5.5 307.99,12.29 z"
   id="path26" />
		</g>
		<g
   class="st0"
   id="g31">
			<path
   class="st11"
   d="m 322.42,366.06 c 45.61,0 82.74,37 82.97,82.56 0.03,5.43 3.97,10.29 9.37,10.85 6.31,0.66 11.63,-4.27 11.63,-10.44 0,-57.33 -46.64,-103.97 -103.97,-103.97 -57.74,0 -104.6,47.32 -103.93,105.21 0,0.13 -0.03,0.24 -0.03,0.37 0.01,0.56 0.05,1.1 0.07,1.66 0.03,0.84 0.06,1.69 0.1,2.53 0.05,0.91 0.12,1.82 0.2,2.73 0.05,0.66 0.08,1.31 0.14,1.98 h 0.04 c 5.32,52.29 49.95,93.47 103.41,93.47 45.18,0 84.91,-28.86 98.88,-71.81 1.04,-3.2 0.49,-6.7 -1.49,-9.42 -1.98,-2.72 -5.14,-4.33 -8.5,-4.33 h -40.27 c -3.7,0 -7.13,1.95 -9.02,5.13 -8.41,14.1 -23.21,22.52 -39.59,22.52 -21.78,0 -40.07,-15.21 -44.84,-35.56 h 101.4 c 0.69,0 1.37,-0.08 2.02,-0.2 0.05,-0.01 0.09,-0.01 0.14,-0.02 0.62,-0.13 1.22,-0.32 1.8,-0.56 0.07,-0.03 0.14,-0.05 0.2,-0.08 0.56,-0.24 1.08,-0.53 1.58,-0.86 0.07,-0.05 0.15,-0.09 0.22,-0.14 0.48,-0.33 0.94,-0.71 1.36,-1.12 0.07,-0.07 0.13,-0.13 0.2,-0.2 0.41,-0.42 0.78,-0.87 1.11,-1.35 0.05,-0.08 0.1,-0.15 0.16,-0.23 0.32,-0.49 0.61,-1.01 0.85,-1.56 0.04,-0.08 0.06,-0.16 0.1,-0.24 0.23,-0.56 0.41,-1.14 0.54,-1.75 0.02,-0.07 0.02,-0.15 0.04,-0.22 0.12,-0.63 0.19,-1.27 0.19,-1.93 0,-0.02 0,-0.03 0,-0.04 0,-36.98 -30.09,-67.07 -67.07,-67.07 -33.41,0 -61.18,24.56 -66.24,56.57 h -16.07 c 5.17,-40.83 40.11,-72.48 82.3,-72.48 z m 0,150.03 c 21.45,0 41.71,-10.46 54.25,-27.65 h 18.78 c -14.27,26.54 -42.05,43.55 -73.03,43.55 -41.94,0 -77.07,-31.75 -82.28,-72.46 h 16.04 c 5.06,32 32.83,56.56 66.24,56.56 z m 0,-113.13 c 21.79,0 40.07,15.21 44.84,35.56 h -89.68 c 4.77,-20.35 23.05,-35.56 44.84,-35.56 z"
   id="path27" />
			<path
   class="st12"
   d="m 278.78,463.73 c -0.46,-1.37 -0.86,-2.77 -1.2,-4.2 H 256.2 c 0.23,1.41 0.48,2.82 0.79,4.2 0,0 0,0 0,0 z m -22.6,-25.21 h 21.4 c 0.33,-1.43 0.73,-2.83 1.2,-4.2 H 257 c -0.32,1.39 -0.6,2.79 -0.82,4.2 z"
   id="path28" />
			<path
   class="st12"
   d="m 240.14,459.53 c 0,0 -2.59,-8.56 -0.02,-21.01 h 4.86 c 0,0 -2.7,7.74 0,21.01 z"
   id="path29" />
			<g
   class="st5"
   id="g30">
				<path
   class="st13"
   d="M 265.86,449.02"
   id="path30" />
			</g>
			<path
   class="st14"
   d="m 322.43,353.45 c -52.7,0 -95.57,42.87 -95.57,95.59 l 0.01,1.46 c 0.79,51.88 43.65,94.09 95.56,94.09 41.53,0 78.05,-26.53 90.89,-66 0.21,-0.64 0.1,-1.34 -0.3,-1.89 -0.4,-0.54 -1.03,-0.87 -1.7,-0.87 h -40.27 c -0.74,0 -1.43,0.39 -1.8,1.03 -9.79,16.42 -27.72,26.62 -46.81,26.62 -26.06,0 -48.46,-18.47 -53.44,-43.96 h -4.21 c 0,0.13 -0.03,0.26 -0.01,0.39 5.2,27.68 29.45,47.77 57.66,47.77 20.16,0 39.12,-10.56 49.79,-27.65 h 36.15 c -13.04,36.22 -47.22,60.35 -85.95,60.35 -49.4,0 -90.22,-39.99 -91.33,-89.27 h 147.89 c 1.16,0 2.1,-0.94 2.1,-2.1 0,-32.35 -26.32,-58.66 -58.67,-58.66 -27.75,0 -52.25,19.64 -57.47,46.84 -0.09,0.46 -0.15,0.89 -0.21,1.32 h 4.21 c 0.05,-0.2 0.09,-0.37 0.11,-0.48 5.16,-25.2 27.6,-43.48 53.36,-43.48 29.33,0 53.32,23.3 54.42,52.36 H 231.1 c 1.12,-49.41 41.64,-89.27 91.32,-89.27 50.38,0 91.37,40.99 91.37,91.37 0,1.16 0.94,2.1 2.1,2.1 1.16,0 2.1,-0.94 2.1,-2.1 0.01,-52.69 -42.87,-95.56 -95.56,-95.56 z"
   id="path31" />
		</g>
	</g>
	<path
   class="st15"
   d="m 400.78,525.08 h -73.47 c -38.6,0 -70,-33.21 -70,-74.02 0,-40.82 31.4,-74.03 70,-74.03 h 73.47 c 7.58,0 13.74,-6.16 13.74,-13.74 0,-7.58 -6.16,-13.74 -13.74,-13.74 h -73.47 c -53.75,0 -97.48,45.53 -97.48,101.5 0,55.97 43.73,101.5 97.48,101.5 h 73.47 c 7.58,0 13.74,-6.16 13.74,-13.74 -0.01,-7.57 -6.17,-13.73 -13.74,-13.73 z"
   id="path32" />
	<path
   class="st15"
   d="m 331.67,431.61 c -9.13,0 -16.55,7.43 -16.55,16.55 0,9.12 7.43,16.55 16.55,16.55 h 55.26 c 9.13,0 16.55,-7.43 16.55,-16.55 0,-9.12 -7.43,-16.55 -16.55,-16.55 z"
   id="path33" />
	<g
   class="st0"
   id="g34">
		<path
   class="st16"
   d="m 611.7,386.86 c 0,2.62 -0.94,4.92 -2.83,6.91 -1.99,1.88 -4.37,2.85 -7.14,2.9 -2.78,0.05 -5.05,-0.86 -6.83,-2.75 -8.27,-8.16 -17.43,-14.29 -27.47,-18.37 -10.05,-4.08 -20.46,-6.12 -31.24,-6.12 -11.3,0 -21.95,2.15 -31.95,6.44 -10,4.29 -18.71,10.15 -26.14,17.58 -7.43,7.43 -13.29,16.17 -17.58,26.22 -4.29,10.05 -6.44,20.78 -6.44,32.18 0,10.99 2.07,21.46 6.2,31.4 4.13,9.94 9.84,18.68 17.11,26.22 7.27,7.54 15.91,13.53 25.9,17.98 9.99,4.45 20.85,6.67 32.58,6.67 10.78,0.11 21.14,-1.73 31.08,-5.5 9.94,-3.77 19.1,-9.84 27.47,-18.21 1.99,-1.88 4.34,-2.85 7.06,-2.9 2.72,-0.05 5.02,0.81 6.91,2.59 1.99,1.88 2.96,4.24 2.9,7.06 -0.05,2.83 -0.97,5.13 -2.75,6.91 -10.26,10.26 -21.61,17.82 -34.07,22.69 -12.46,4.87 -25.33,7.3 -38.62,7.3 -9.32,0 -18.32,-1.23 -27,-3.69 -8.69,-2.46 -16.8,-5.89 -24.33,-10.28 -7.54,-4.4 -14.39,-9.71 -20.57,-15.93 -6.18,-6.23 -11.46,-13.13 -15.86,-20.72 -4.4,-7.59 -7.8,-15.72 -10.2,-24.41 -2.41,-8.69 -3.61,-17.74 -3.61,-27.16 0,-8.89 1.15,-17.63 3.45,-26.22 2.3,-8.58 5.57,-16.64 9.81,-24.18 4.24,-7.54 9.39,-14.5 15.46,-20.88 6.07,-6.38 12.9,-11.88 20.49,-16.48 7.59,-4.6 15.8,-8.19 24.65,-10.75 8.84,-2.56 18.24,-3.85 28.18,-3.85 13.19,0 26.03,2.57 38.54,7.69 12.5,5.13 23.78,12.72 33.83,22.76 2.01,1.98 3.01,4.28 3.01,6.9 z"
   id="path34" />
	</g>
	<line
   x1="536.51001"
   y1="346.54999"
   x2="538.51001"
   y2="346.54999"
   id="line34" />
</g>
<g
   id="g36"
   transform="translate(-204.01,-344.54999)">
	<path
   class="st17"
   d="m 638.14,422.94 c 0,-10.31 1.93,-20.03 5.8,-29.17 3.87,-9.13 9.18,-17.08 15.95,-23.85 6.77,-6.77 14.71,-12.14 23.85,-16.11 9.13,-3.97 18.85,-5.96 29.17,-5.96 10.31,0 20.03,1.99 29.17,5.96 9.13,3.98 17.08,9.35 23.85,16.11 6.77,6.77 12.14,14.72 16.11,23.85 3.97,9.13 5.96,18.85 5.96,29.17 0,10.31 -1.99,20.04 -5.96,29.17 -3.98,9.13 -9.35,17.08 -16.11,23.85 -6.77,6.77 -14.72,12.09 -23.85,15.95 -9.13,3.87 -18.85,5.8 -29.17,5.8 -5.59,0 -11.12,-0.64 -16.6,-1.93 -5.48,-1.29 -10.63,-3.22 -15.47,-5.8 -4.83,-2.58 -9.24,-5.75 -13.21,-9.51 -3.98,-3.76 -7.15,-8.22 -9.51,-13.37 v 77.67 c 0,2.79 -0.97,5.16 -2.9,7.09 -1.93,1.93 -4.3,2.9 -7.09,2.9 -2.8,0 -5.16,-0.97 -7.09,-2.9 -1.93,-1.93 -2.9,-4.3 -2.9,-7.09 z m 19.98,0 c 0.21,7.95 1.82,15.26 4.83,21.92 3.01,6.66 6.98,12.41 11.92,17.24 4.94,4.83 10.64,8.65 17.08,11.44 6.44,2.79 13.43,4.19 20.95,4.19 7.52,0 14.61,-1.45 21.27,-4.35 6.66,-2.9 12.51,-6.82 17.56,-11.76 5.05,-4.94 9.02,-10.74 11.93,-17.4 2.9,-6.66 4.35,-13.75 4.35,-21.27 0,-7.52 -1.45,-14.61 -4.35,-21.27 -2.9,-6.66 -6.88,-12.51 -11.93,-17.56 -5.05,-5.05 -10.91,-9.02 -17.56,-11.92 -6.66,-2.9 -13.75,-4.35 -21.27,-4.35 -7.52,0 -14.61,1.45 -21.27,4.35 -6.66,2.9 -12.46,6.88 -17.4,11.92 -4.95,5.05 -8.86,10.91 -11.76,17.56 -2.9,6.65 -4.35,13.74 -4.35,21.26 z"
   id="path35" />
</g>
<g
   id="g37"
   transform="translate(-204.01,-346.54999)">
	<path
   class="st17"
   d="m 451.33,451.36 c 0,11.23 2.11,21.81 6.35,31.76 4.23,9.95 10,18.64 17.31,26.04 7.31,7.41 15.93,13.29 25.89,17.63 9.95,4.34 20.54,6.51 31.76,6.51 11.86,0 22.92,-2.27 33.19,-6.83 10.27,-4.55 19.11,-10.85 26.52,-18.9 1.69,-1.91 3.86,-3.18 6.51,-3.81 2.64,-0.63 5.03,-0.21 7.15,1.27 2.33,1.91 3.49,4.5 3.49,7.78 0,3.29 -0.95,5.99 -2.86,8.1 -9.32,10.16 -20.33,18.06 -33.03,23.66 -12.7,5.61 -26.36,8.42 -40.97,8.42 -13.98,0 -27.11,-2.64 -39.38,-7.94 -12.28,-5.29 -22.98,-12.55 -32.08,-21.76 -9.11,-9.21 -16.31,-20.01 -21.6,-32.4 -5.3,-12.39 -7.94,-25.57 -7.94,-39.54 0,-13.98 2.64,-27.16 7.94,-39.54 5.29,-12.39 12.49,-23.19 21.6,-32.4 9.1,-9.21 19.8,-16.52 32.08,-21.92 12.28,-5.4 25.41,-8.1 39.38,-8.1 14.18,0 27.47,2.75 39.86,8.26 12.39,5.51 23.24,13.02 32.56,22.55 1.69,1.7 2.96,3.81 3.81,6.35 0.84,2.54 0.53,4.98 -0.95,7.31 -1.7,2.54 -4.18,3.92 -7.46,4.13 -3.29,0.21 -6.09,-0.84 -8.42,-3.18 -7.62,-6.56 -16.52,-12.49 -26.68,-17.79 -10.16,-5.29 -21.07,-7.94 -32.71,-7.94 -11.23,0 -21.81,2.17 -31.76,6.51 -9.96,4.34 -18.58,10.27 -25.89,17.79 -7.31,7.52 -13.08,16.25 -17.31,26.2 -4.25,9.98 -6.36,20.56 -6.36,31.78 z"
   id="path36" />
</g>
</svg>
