<?xml version="1.0" encoding="UTF-8" standalone="no"?>
<!-- Generator: Adobe Illustrator 25.4.1, SVG Export Plug-In . SVG Version: 6.00 Build 0)  -->

<svg
   version="1.1"
   id="Layer_1"
   x="0px"
   y="0px"
   viewBox="0 0 683.15997 314.01001"
   xml:space="preserve"
   width="683.15997"
   height="314.01001"
   xmlns="http://www.w3.org/2000/svg"
   xmlns:svg="http://www.w3.org/2000/svg"><defs
   id="defs31" />
<style
   type="text/css"
   id="style1">
	.st0{fill:#0071BC;}
	.st1{display:none;}
	.st2{display:inline;fill:#0071BC;}
	.st3{display:inline;}
	.st4{font-family:'MyriadPro-Regular';}
	.st5{font-size:39.6714px;}
	.st6{display:inline;fill:#F15A24;}
	.st7{display:inline;opacity:0.3;fill:#3B00A0;}
	.st8{fill:none;stroke:#FFFFFF;stroke-width:1.6163;stroke-linecap:round;stroke-linejoin:round;stroke-miterlimit:10;}
	.st9{display:inline;opacity:0.5;fill:#FFFFFF;}
	.st10{opacity:0.2;}
	.st11{fill:url(#SVGID_1_);}
</style>
<g
   id="g18"
   transform="translate(-170.42,-336)">
	<path
   class="st0"
   d="m 212.77,636.94 c -0.6,-0.05 -1.09,-0.28 -1.46,-0.71 -0.37,-0.43 -0.56,-0.95 -0.56,-1.55 v -40.12 c 0,-0.65 0.22,-1.18 0.66,-1.59 0.44,-0.41 0.98,-0.61 1.6,-0.61 h 19.89 c 0.6,0 1.11,0.21 1.53,0.63 0.42,0.42 0.63,0.94 0.63,1.57 0,0.6 -0.21,1.12 -0.63,1.55 -0.42,0.43 -0.93,0.64 -1.53,0.64 h -17.76 v 15.78 h 13.09 c 0.63,-0.02 1.15,0.18 1.57,0.61 0.42,0.43 0.63,0.95 0.63,1.55 0,0.6 -0.21,1.11 -0.63,1.52 -0.42,0.41 -0.94,0.61 -1.57,0.61 h -13.09 v 15.78 h 17.76 c 0.6,0 1.11,0.21 1.53,0.63 0.42,0.42 0.63,0.93 0.63,1.53 0,0.63 -0.21,1.16 -0.63,1.58 -0.42,0.43 -0.93,0.63 -1.53,0.61 h -20.13 z"
   id="path1" />
	<path
   class="st0"
   d="m 244.91,609.53 c 1.53,-1.67 3.34,-2.99 5.43,-3.95 2.09,-0.96 4.35,-1.44 6.79,-1.44 2.3,0 4.45,0.44 6.46,1.31 2.01,0.87 3.76,2.05 5.26,3.55 1.5,1.5 2.68,3.26 3.55,5.29 0.87,2.03 1.31,4.2 1.31,6.49 0,2.27 -0.44,4.42 -1.31,6.44 -0.87,2.02 -2.05,3.78 -3.55,5.28 -1.5,1.5 -3.25,2.68 -5.26,3.55 -2.01,0.87 -4.16,1.31 -6.46,1.31 -2.44,0 -4.7,-0.48 -6.79,-1.43 -2.09,-0.95 -3.9,-2.26 -5.43,-3.94 v 14.56 c 0,0.6 -0.21,1.11 -0.64,1.53 -0.43,0.42 -0.95,0.63 -1.55,0.63 -0.6,0 -1.12,-0.21 -1.55,-0.63 -0.43,-0.42 -0.64,-0.93 -0.64,-1.53 v -40.26 c 0,-0.63 0.21,-1.14 0.64,-1.55 0.43,-0.41 0.95,-0.61 1.55,-0.61 0.6,0 1.12,0.2 1.55,0.61 0.43,0.41 0.64,0.92 0.64,1.55 z m 0,11.25 c 0,1.67 0.32,3.24 0.96,4.72 0.64,1.48 1.5,2.76 2.59,3.87 1.09,1.1 2.38,1.98 3.87,2.63 1.49,0.65 3.09,0.98 4.81,0.98 1.72,0 3.32,-0.33 4.81,-0.98 1.49,-0.65 2.78,-1.53 3.88,-2.63 1.1,-1.1 1.97,-2.39 2.59,-3.87 0.63,-1.47 0.94,-3.05 0.94,-4.72 0,-1.7 -0.31,-3.29 -0.94,-4.77 -0.63,-1.49 -1.49,-2.78 -2.59,-3.88 -1.1,-1.1 -2.4,-1.97 -3.88,-2.61 -1.49,-0.64 -3.09,-0.96 -4.81,-0.96 -1.7,0 -3.29,0.32 -4.77,0.96 -1.49,0.64 -2.78,1.51 -3.88,2.61 -1.1,1.1 -1.97,2.4 -2.61,3.88 -0.65,1.49 -0.97,3.08 -0.97,4.77 z"
   id="path2" />
	<path
   class="st0"
   d="m 279.01,594.73 c 0.51,-0.51 1.13,-0.77 1.85,-0.77 0.74,0 1.38,0.26 1.92,0.77 0.53,0.51 0.8,1.15 0.8,1.92 0,0.7 -0.27,1.31 -0.8,1.83 -0.53,0.52 -1.17,0.78 -1.92,0.78 -0.72,0 -1.34,-0.26 -1.85,-0.78 -0.51,-0.52 -0.77,-1.13 -0.77,-1.83 0,-0.77 0.26,-1.41 0.77,-1.92 z m 4.07,39.98 c 0,0.63 -0.21,1.15 -0.64,1.58 -0.43,0.43 -0.95,0.64 -1.55,0.64 -0.6,0 -1.12,-0.21 -1.55,-0.64 -0.43,-0.43 -0.64,-0.96 -0.64,-1.58 v -28.38 c 0,-0.6 0.22,-1.12 0.66,-1.55 0.44,-0.43 0.96,-0.64 1.57,-0.64 0.6,0 1.11,0.22 1.53,0.64 0.42,0.43 0.63,0.95 0.63,1.55 v 28.38 z"
   id="path3" />
	<path
   class="st0"
   d="m 292.48,620.61 -0.07,0.14 0.03,0.07 0.04,0.04 c 0,1.58 0.3,3.09 0.89,4.53 0.59,1.44 1.41,2.71 2.46,3.81 1.04,1.1 2.28,1.99 3.71,2.66 1.43,0.67 2.98,1.01 4.65,1.01 1.53,0.02 2.98,-0.2 4.35,-0.66 1.37,-0.46 2.65,-1.23 3.83,-2.3 0.23,-0.19 0.48,-0.36 0.73,-0.52 0.26,-0.16 0.53,-0.28 0.82,-0.35 0.29,-0.07 0.6,-0.07 0.92,0 0.32,0.07 0.66,0.26 1.01,0.56 0.46,0.42 0.7,0.95 0.7,1.58 0,0.63 -0.27,1.22 -0.8,1.76 -1.39,1.39 -3.08,2.47 -5.05,3.24 -1.97,0.77 -4.02,1.15 -6.13,1.15 -2.28,0 -4.42,-0.42 -6.43,-1.27 -2.01,-0.85 -3.76,-2.01 -5.26,-3.48 -1.5,-1.47 -2.68,-3.21 -3.55,-5.21 -0.87,-2 -1.31,-4.13 -1.31,-6.41 l 0.07,-0.21 c -0.05,-0.05 -0.07,-0.09 -0.07,-0.14 0,-2.27 0.44,-4.42 1.31,-6.42 0.87,-2.01 2.05,-3.76 3.55,-5.26 1.5,-1.5 3.25,-2.68 5.26,-3.55 2.01,-0.87 4.15,-1.31 6.43,-1.31 2.11,0 4.16,0.38 6.13,1.15 1.97,0.77 3.66,1.85 5.05,3.24 0.53,0.53 0.8,1.12 0.8,1.76 0,0.64 -0.24,1.18 -0.73,1.62 -0.35,0.3 -0.68,0.49 -0.99,0.56 -0.31,0.07 -0.62,0.07 -0.91,0 -0.29,-0.07 -0.56,-0.19 -0.82,-0.35 -0.26,-0.16 -0.5,-0.34 -0.73,-0.52 -1.18,-1.04 -2.46,-1.81 -3.83,-2.3 -1.37,-0.49 -2.82,-0.72 -4.35,-0.7 -1.65,0.02 -3.18,0.37 -4.6,1.03 -1.42,0.66 -2.65,1.55 -3.71,2.66 -1.06,1.11 -1.89,2.4 -2.49,3.85 -0.61,1.44 -0.91,2.96 -0.91,4.54 z"
   id="path4" />
	<path
   class="st0"
   d="m 342.63,612.53 h 22.64 v -18 c 0,-0.6 0.22,-1.11 0.66,-1.53 0.44,-0.42 0.96,-0.63 1.57,-0.63 0.6,0 1.11,0.21 1.53,0.63 0.42,0.42 0.63,0.93 0.63,1.53 v 40.26 c 0,0.6 -0.22,1.11 -0.64,1.53 -0.43,0.42 -0.95,0.63 -1.55,0.63 -0.6,0 -1.12,-0.21 -1.55,-0.63 -0.43,-0.42 -0.64,-0.93 -0.64,-1.53 v -17.87 h -22.64 v 17.87 c 0,0.6 -0.21,1.11 -0.64,1.53 -0.43,0.42 -0.95,0.63 -1.55,0.63 -0.6,0 -1.12,-0.21 -1.55,-0.63 -0.43,-0.42 -0.64,-0.93 -0.64,-1.53 v -40.26 c 0,-0.6 0.21,-1.11 0.64,-1.53 0.43,-0.42 0.95,-0.63 1.55,-0.63 0.6,0 1.12,0.21 1.55,0.63 0.43,0.42 0.64,0.93 0.64,1.53 v 18 z"
   id="path5" />
	<path
   class="st0"
   d="m 377.02,614.29 c 0.87,-2.03 2.06,-3.8 3.57,-5.29 1.51,-1.5 3.27,-2.68 5.29,-3.55 2.02,-0.87 4.17,-1.31 6.44,-1.31 2.3,0 4.45,0.44 6.46,1.31 2.01,0.87 3.76,2.05 5.26,3.55 1.5,1.5 2.68,3.26 3.55,5.29 0.87,2.03 1.31,4.2 1.31,6.49 0,2.27 -0.44,4.42 -1.31,6.44 -0.87,2.02 -2.05,3.78 -3.55,5.28 -1.5,1.5 -3.25,2.68 -5.26,3.55 -2.01,0.87 -4.16,1.31 -6.46,1.31 -2.28,0 -4.42,-0.44 -6.44,-1.31 -2.02,-0.87 -3.78,-2.05 -5.29,-3.55 -1.51,-1.5 -2.7,-3.26 -3.57,-5.28 -0.87,-2.02 -1.31,-4.17 -1.31,-6.44 0,-2.3 0.44,-4.46 1.31,-6.49 z m 4.04,11.21 c 0.64,1.48 1.5,2.76 2.59,3.87 1.09,1.1 2.38,1.98 3.87,2.63 1.49,0.65 3.09,0.98 4.81,0.98 1.72,0 3.32,-0.33 4.81,-0.98 1.49,-0.65 2.78,-1.53 3.88,-2.63 1.1,-1.1 1.97,-2.39 2.59,-3.87 0.63,-1.47 0.94,-3.05 0.94,-4.72 0,-1.7 -0.31,-3.29 -0.94,-4.77 -0.63,-1.49 -1.49,-2.78 -2.59,-3.88 -1.1,-1.1 -2.4,-1.97 -3.88,-2.61 -1.49,-0.64 -3.09,-0.96 -4.81,-0.96 -1.7,0 -3.29,0.32 -4.77,0.96 -1.49,0.64 -2.78,1.51 -3.88,2.61 -1.1,1.1 -1.97,2.4 -2.61,3.88 -0.64,1.49 -0.96,3.08 -0.96,4.77 -0.01,1.67 0.31,3.25 0.95,4.72 z"
   id="path6" />
	<path
   class="st0"
   d="m 419,620.66 c -1.21,-0.5 -2.28,-1.1 -3.2,-1.81 -0.93,-0.71 -1.68,-1.55 -2.25,-2.52 -0.57,-0.97 -0.85,-2.12 -0.85,-3.45 0,-1.42 0.31,-2.68 0.94,-3.78 0.63,-1.1 1.45,-2.02 2.46,-2.75 1.01,-0.73 2.16,-1.29 3.46,-1.67 1.3,-0.38 2.61,-0.57 3.94,-0.57 1,0 1.99,0.1 2.98,0.3 0.99,0.2 1.91,0.49 2.77,0.89 0.86,0.39 1.64,0.89 2.33,1.48 0.7,0.59 1.25,1.29 1.67,2.11 0.23,0.46 0.31,0.89 0.24,1.27 -0.07,0.38 -0.23,0.7 -0.49,0.96 -0.28,0.3 -0.62,0.5 -1.03,0.59 -0.41,0.09 -0.8,0.05 -1.17,-0.14 -1,-1.14 -2.04,-2.02 -3.12,-2.65 -1.08,-0.63 -2.37,-0.94 -3.88,-0.94 -0.81,0 -1.62,0.09 -2.42,0.26 -0.8,0.17 -1.52,0.45 -2.16,0.84 -0.64,0.38 -1.15,0.88 -1.55,1.48 -0.4,0.6 -0.59,1.35 -0.59,2.23 0,0.81 0.18,1.5 0.54,2.07 0.36,0.57 0.85,1.07 1.48,1.5 0.63,0.43 1.35,0.8 2.18,1.12 0.82,0.31 1.7,0.61 2.63,0.89 1.49,0.47 2.9,0.95 4.23,1.45 1.33,0.5 2.51,1.11 3.53,1.83 1.02,0.72 1.83,1.58 2.44,2.59 0.6,1.01 0.91,2.23 0.91,3.67 0,1.35 -0.3,2.6 -0.89,3.74 -0.59,1.15 -1.4,2.15 -2.42,3 -1.02,0.85 -2.22,1.51 -3.59,1.99 -1.37,0.48 -2.84,0.71 -4.42,0.71 -1.18,0 -2.35,-0.12 -3.48,-0.35 -1.14,-0.23 -2.21,-0.59 -3.22,-1.06 -1.01,-0.48 -1.92,-1.07 -2.73,-1.79 -0.81,-0.72 -1.46,-1.57 -1.95,-2.54 -0.35,-0.63 -0.45,-1.2 -0.3,-1.72 0.15,-0.52 0.44,-0.91 0.87,-1.15 0.43,-0.24 0.93,-0.32 1.5,-0.23 0.57,0.09 1.09,0.43 1.55,1.01 0.81,1.37 1.85,2.37 3.12,3.01 1.26,0.64 2.81,0.96 4.65,0.96 0.91,0 1.78,-0.13 2.63,-0.38 0.85,-0.26 1.6,-0.61 2.26,-1.08 0.66,-0.46 1.19,-1.03 1.58,-1.71 0.39,-0.67 0.59,-1.42 0.59,-2.23 0,-0.88 -0.22,-1.64 -0.66,-2.26 -0.44,-0.63 -1.04,-1.17 -1.79,-1.64 -0.75,-0.46 -1.61,-0.87 -2.58,-1.2 -0.96,-0.34 -1.97,-0.64 -3.01,-0.92 -1.28,-0.45 -2.52,-0.91 -3.73,-1.41 z"
   id="path7" />
	<path
   class="st0"
   d="m 447.56,604.17 h 4.63 c 0.63,0 1.15,0.21 1.57,0.63 0.42,0.42 0.63,0.93 0.63,1.53 0,0.65 -0.21,1.18 -0.63,1.6 -0.42,0.42 -0.94,0.63 -1.57,0.63 h -4.63 v 26.22 c 0,0.6 -0.22,1.11 -0.64,1.53 -0.43,0.42 -0.95,0.63 -1.55,0.63 -0.6,0 -1.11,-0.21 -1.53,-0.63 -0.42,-0.42 -0.63,-0.93 -0.63,-1.53 v -26.22 h -3.83 c -0.6,0 -1.12,-0.21 -1.55,-0.64 -0.43,-0.43 -0.64,-0.96 -0.64,-1.58 0,-0.6 0.21,-1.11 0.64,-1.53 0.43,-0.42 0.95,-0.63 1.55,-0.63 h 3.83 v -9.65 c 0,-0.63 0.21,-1.14 0.63,-1.55 0.42,-0.41 0.93,-0.61 1.53,-0.61 0.6,0 1.12,0.2 1.55,0.61 0.43,0.41 0.64,0.92 0.64,1.55 z"
   id="path8" />
	<path
   class="st0"
   d="m 458.77,594.73 c 0.51,-0.51 1.13,-0.77 1.85,-0.77 0.74,0 1.38,0.26 1.92,0.77 0.53,0.51 0.8,1.15 0.8,1.92 0,0.7 -0.27,1.31 -0.8,1.83 -0.53,0.52 -1.17,0.78 -1.92,0.78 -0.72,0 -1.34,-0.26 -1.85,-0.78 -0.51,-0.52 -0.77,-1.13 -0.77,-1.83 0,-0.77 0.26,-1.41 0.77,-1.92 z m 4.07,39.98 c 0,0.63 -0.21,1.15 -0.64,1.58 -0.43,0.43 -0.95,0.64 -1.55,0.64 -0.6,0 -1.12,-0.21 -1.55,-0.64 -0.43,-0.43 -0.64,-0.96 -0.64,-1.58 v -28.38 c 0,-0.6 0.22,-1.12 0.66,-1.55 0.44,-0.43 0.96,-0.64 1.57,-0.64 0.6,0 1.11,0.22 1.53,0.64 0.42,0.43 0.63,0.95 0.63,1.55 v 28.38 z"
   id="path9" />
	<path
   class="st0"
   d="m 498.23,634.78 c 0,0.63 -0.21,1.15 -0.63,1.57 -0.42,0.42 -0.95,0.63 -1.58,0.63 -0.61,0 -1.12,-0.21 -1.54,-0.63 -0.42,-0.42 -0.63,-0.94 -0.63,-1.57 v -14.71 c -0.05,-3.71 -0.88,-6.56 -2.49,-8.54 -1.61,-1.98 -3.87,-2.97 -6.77,-2.97 -1.42,0 -2.75,0.28 -3.99,0.83 -1.24,0.56 -2.33,1.33 -3.27,2.31 -0.94,0.99 -1.69,2.15 -2.25,3.5 -0.56,1.35 -0.86,2.79 -0.91,4.35 v 15.16 c 0,0.63 -0.21,1.15 -0.64,1.58 -0.43,0.43 -0.95,0.64 -1.55,0.64 -0.6,0 -1.12,-0.21 -1.55,-0.64 -0.43,-0.43 -0.64,-0.96 -0.64,-1.58 v -28.38 c 0,-0.6 0.22,-1.12 0.66,-1.55 0.44,-0.43 0.96,-0.64 1.57,-0.64 0.6,0 1.11,0.22 1.53,0.64 0.42,0.43 0.63,0.95 0.63,1.55 l 0.01,3.73 c 1.37,-1.76 2.99,-3.19 4.86,-4.27 1.87,-1.08 3.88,-1.62 6.01,-1.62 2,0 3.81,0.37 5.42,1.11 1.62,0.74 3,1.81 4.15,3.19 1.15,1.38 2.03,3.05 2.65,5.01 0.62,1.96 0.93,4.15 0.96,6.57 v 14.73 z"
   id="path10" />
	<path
   class="st0"
   d="m 536.05,606.33 v 26.97 c -0.02,2.46 -0.47,4.72 -1.34,6.77 -0.87,2.05 -2.05,3.82 -3.53,5.29 -1.49,1.47 -3.23,2.62 -5.22,3.43 -2,0.81 -4.12,1.22 -6.37,1.22 -2.11,0 -4.16,-0.38 -6.13,-1.15 -1.97,-0.77 -3.66,-1.85 -5.05,-3.24 -0.53,-0.53 -0.8,-1.12 -0.8,-1.76 0,-0.64 0.24,-1.18 0.73,-1.62 0.35,-0.3 0.68,-0.49 0.99,-0.56 0.31,-0.07 0.61,-0.07 0.91,0 0.29,0.07 0.56,0.18 0.82,0.35 0.26,0.16 0.5,0.34 0.73,0.52 1.18,1.04 2.46,1.81 3.83,2.3 1.37,0.49 2.82,0.72 4.35,0.7 1.62,-0.02 3.15,-0.35 4.58,-0.97 1.43,-0.63 2.67,-1.49 3.73,-2.6 1.06,-1.1 1.89,-2.41 2.49,-3.92 0.6,-1.51 0.91,-3.17 0.91,-4.98 v -1.04 c -1.53,1.65 -3.34,2.95 -5.41,3.9 -2.08,0.95 -4.34,1.43 -6.77,1.43 -2.28,0 -4.42,-0.44 -6.44,-1.3 -2.02,-0.87 -3.78,-2.05 -5.29,-3.55 -1.51,-1.5 -2.7,-3.25 -3.57,-5.27 -0.87,-2.02 -1.31,-4.16 -1.31,-6.44 0,-2.3 0.44,-4.46 1.31,-6.49 0.87,-2.03 2.06,-3.79 3.57,-5.29 1.51,-1.5 3.27,-2.68 5.29,-3.55 2.02,-0.87 4.17,-1.3 6.44,-1.3 2.44,0 4.7,0.48 6.77,1.43 2.08,0.95 3.88,2.26 5.41,3.93 v -3.2 c 0,-0.63 0.22,-1.14 0.65,-1.55 0.43,-0.41 0.95,-0.61 1.55,-0.61 0.6,0 1.12,0.2 1.55,0.61 0.4,0.39 0.62,0.91 0.62,1.54 z m -28.8,14.45 c 0,1.67 0.32,3.24 0.96,4.72 0.64,1.48 1.5,2.76 2.59,3.87 1.09,1.1 2.38,1.98 3.87,2.63 1.49,0.65 3.09,0.98 4.81,0.98 1.72,0 3.32,-0.33 4.81,-0.98 1.49,-0.65 2.77,-1.53 3.87,-2.63 1.09,-1.1 1.95,-2.39 2.58,-3.87 0.63,-1.47 0.94,-3.05 0.94,-4.72 0,-1.7 -0.31,-3.29 -0.94,-4.77 -0.63,-1.49 -1.49,-2.78 -2.58,-3.88 -1.09,-1.1 -2.38,-1.97 -3.87,-2.61 -1.49,-0.64 -3.09,-0.96 -4.81,-0.96 -1.7,0 -3.29,0.32 -4.77,0.96 -1.49,0.64 -2.78,1.51 -3.88,2.61 -1.1,1.1 -1.97,2.4 -2.61,3.88 -0.66,1.49 -0.97,3.08 -0.97,4.77 z"
   id="path11" />
	<path
   class="st0"
   d="m 564.36,602.92 -4.25,32.04 c -0.09,0.6 -0.38,1.08 -0.85,1.43 -0.48,0.35 -1.02,0.49 -1.62,0.42 -0.6,-0.12 -1.09,-0.41 -1.45,-0.87 -0.36,-0.46 -0.49,-1 -0.4,-1.6 l 5.29,-39.84 c 0.07,-0.53 0.29,-0.96 0.66,-1.29 0.19,-0.19 0.44,-0.36 0.77,-0.52 0.53,-0.23 1.09,-0.24 1.65,-0.02 0.57,0.22 0.98,0.61 1.24,1.17 l 14.38,35.31 14.38,-35.31 c 0.23,-0.53 0.61,-0.92 1.15,-1.15 0.53,-0.23 1.09,-0.23 1.67,0 l 0.38,0.21 c 0.28,0.19 0.51,0.41 0.7,0.68 0.19,0.27 0.3,0.57 0.35,0.92 l 5.05,39.91 c 0.07,0.6 -0.08,1.14 -0.45,1.6 -0.37,0.47 -0.86,0.73 -1.46,0.8 -0.6,0.07 -1.14,-0.07 -1.62,-0.44 -0.48,-0.36 -0.75,-0.84 -0.82,-1.44 l -4.04,-31.83 -13.3,32.6 c -0.21,0.47 -0.51,0.81 -0.91,1.04 -0.39,0.23 -0.81,0.32 -1.25,0.28 -0.39,-0.02 -0.76,-0.14 -1.1,-0.37 -0.34,-0.22 -0.6,-0.54 -0.78,-0.96 z"
   id="path12" />
	<path
   class="st0"
   d="m 605.63,620.8 c 0,-2.3 0.44,-4.46 1.31,-6.49 0.87,-2.03 2.06,-3.79 3.57,-5.29 1.51,-1.5 3.27,-2.68 5.29,-3.55 2.02,-0.87 4.17,-1.3 6.44,-1.3 2.28,0 4.41,0.43 6.41,1.29 2,0.86 3.74,2.02 5.24,3.5 1.5,1.47 2.68,3.21 3.55,5.2 0.87,1.99 1.33,4.13 1.38,6.4 v 14.12 c 0,0.63 -0.21,1.16 -0.65,1.6 -0.43,0.44 -0.96,0.66 -1.58,0.66 -0.63,0 -1.14,-0.22 -1.55,-0.66 -0.41,-0.44 -0.61,-0.97 -0.61,-1.6 l -0.03,-3 c -1.53,1.7 -3.34,3.06 -5.42,4.11 -2.08,1.04 -4.32,1.57 -6.74,1.57 -2.28,0 -4.42,-0.44 -6.44,-1.3 -2.02,-0.87 -3.78,-2.05 -5.29,-3.55 -1.51,-1.5 -2.7,-3.25 -3.57,-5.27 -0.88,-2.02 -1.31,-4.17 -1.31,-6.44 z m 4.38,-0.02 c 0,1.67 0.32,3.24 0.96,4.72 0.64,1.48 1.5,2.76 2.59,3.87 1.09,1.1 2.38,1.98 3.87,2.63 1.49,0.65 3.09,0.98 4.81,0.98 1.72,0 3.32,-0.33 4.81,-0.98 1.49,-0.65 2.77,-1.53 3.87,-2.63 1.09,-1.1 1.95,-2.39 2.58,-3.87 0.63,-1.47 0.94,-3.05 0.94,-4.72 0,-1.7 -0.31,-3.29 -0.94,-4.77 -0.63,-1.49 -1.49,-2.78 -2.58,-3.88 -1.09,-1.1 -2.38,-1.97 -3.87,-2.61 -1.49,-0.64 -3.09,-0.96 -4.81,-0.96 -1.7,0 -3.29,0.32 -4.77,0.96 -1.49,0.64 -2.78,1.51 -3.88,2.61 -1.1,1.1 -1.97,2.4 -2.61,3.88 -0.65,1.49 -0.97,3.08 -0.97,4.77 z"
   id="path13" />
	<path
   class="st0"
   d="m 674.23,634.78 c 0,0.63 -0.21,1.15 -0.63,1.57 -0.42,0.42 -0.95,0.63 -1.58,0.63 -0.61,0 -1.12,-0.21 -1.54,-0.63 -0.42,-0.42 -0.63,-0.94 -0.63,-1.57 v -14.71 c -0.05,-3.71 -0.88,-6.56 -2.49,-8.54 -1.61,-1.98 -3.87,-2.97 -6.77,-2.97 -1.42,0 -2.75,0.28 -3.99,0.83 -1.24,0.55 -2.33,1.33 -3.27,2.31 -0.94,0.99 -1.69,2.15 -2.25,3.5 -0.56,1.35 -0.86,2.79 -0.91,4.35 v 15.16 c 0,0.63 -0.22,1.15 -0.64,1.58 -0.43,0.43 -0.95,0.64 -1.55,0.64 -0.6,0 -1.12,-0.21 -1.55,-0.64 -0.43,-0.43 -0.64,-0.96 -0.64,-1.58 v -28.38 c 0,-0.6 0.22,-1.12 0.66,-1.55 0.44,-0.43 0.96,-0.64 1.57,-0.64 0.6,0 1.11,0.22 1.53,0.64 0.42,0.43 0.63,0.95 0.63,1.55 l 0.01,3.73 c 1.37,-1.76 2.99,-3.19 4.86,-4.27 1.87,-1.08 3.88,-1.62 6.01,-1.62 2,0 3.81,0.37 5.42,1.11 1.62,0.74 3,1.81 4.15,3.19 1.15,1.38 2.03,3.05 2.65,5.01 0.62,1.96 0.94,4.15 0.96,6.57 v 14.73 z"
   id="path14" />
	<path
   class="st0"
   d="m 678.86,620.8 c 0,-2.3 0.44,-4.46 1.31,-6.49 0.87,-2.03 2.06,-3.79 3.57,-5.29 1.51,-1.5 3.27,-2.68 5.29,-3.55 2.02,-0.87 4.17,-1.3 6.44,-1.3 2.27,0 4.41,0.43 6.41,1.29 2,0.86 3.74,2.02 5.24,3.5 1.5,1.47 2.68,3.21 3.55,5.2 0.87,1.99 1.33,4.13 1.38,6.4 v 14.12 c 0,0.63 -0.22,1.16 -0.65,1.6 -0.43,0.44 -0.96,0.66 -1.58,0.66 -0.63,0 -1.14,-0.22 -1.55,-0.66 -0.41,-0.44 -0.61,-0.97 -0.61,-1.6 l -0.03,-3 c -1.53,1.7 -3.34,3.06 -5.42,4.11 -2.08,1.04 -4.32,1.57 -6.74,1.57 -2.28,0 -4.42,-0.44 -6.44,-1.3 -2.02,-0.87 -3.78,-2.05 -5.29,-3.55 -1.51,-1.5 -2.7,-3.25 -3.57,-5.27 -0.87,-2.02 -1.31,-4.17 -1.31,-6.44 z m 4.39,-0.02 c 0,1.67 0.32,3.24 0.96,4.72 0.64,1.48 1.5,2.76 2.59,3.87 1.09,1.1 2.38,1.98 3.87,2.63 1.49,0.65 3.09,0.98 4.81,0.98 1.72,0 3.32,-0.33 4.81,-0.98 1.49,-0.65 2.77,-1.53 3.87,-2.63 1.09,-1.1 1.95,-2.39 2.58,-3.87 0.63,-1.47 0.94,-3.05 0.94,-4.72 0,-1.7 -0.31,-3.29 -0.94,-4.77 -0.63,-1.49 -1.49,-2.78 -2.58,-3.88 -1.09,-1.1 -2.38,-1.97 -3.87,-2.61 -1.49,-0.64 -3.09,-0.96 -4.81,-0.96 -1.7,0 -3.29,0.32 -4.77,0.96 -1.49,0.64 -2.78,1.51 -3.88,2.61 -1.1,1.1 -1.97,2.4 -2.61,3.88 -0.65,1.49 -0.97,3.08 -0.97,4.77 z"
   id="path15" />
	<path
   class="st0"
   d="m 750.22,606.33 v 26.97 c -0.02,2.46 -0.47,4.72 -1.34,6.77 -0.87,2.05 -2.05,3.82 -3.53,5.29 -1.49,1.47 -3.23,2.62 -5.22,3.43 -2,0.81 -4.12,1.22 -6.37,1.22 -2.11,0 -4.16,-0.38 -6.13,-1.15 -1.97,-0.77 -3.66,-1.85 -5.05,-3.24 -0.53,-0.53 -0.8,-1.12 -0.8,-1.76 0,-0.64 0.24,-1.18 0.73,-1.62 0.35,-0.3 0.68,-0.49 0.99,-0.56 0.31,-0.07 0.61,-0.07 0.91,0 0.29,0.07 0.56,0.18 0.82,0.35 0.26,0.16 0.5,0.34 0.73,0.52 1.18,1.04 2.46,1.81 3.83,2.3 1.37,0.49 2.82,0.72 4.35,0.7 1.62,-0.02 3.15,-0.35 4.58,-0.97 1.43,-0.63 2.67,-1.49 3.73,-2.6 1.06,-1.1 1.89,-2.41 2.49,-3.92 0.6,-1.51 0.91,-3.17 0.91,-4.98 v -1.04 c -1.53,1.65 -3.34,2.95 -5.41,3.9 -2.08,0.95 -4.34,1.43 -6.77,1.43 -2.28,0 -4.42,-0.44 -6.44,-1.3 -2.02,-0.87 -3.78,-2.05 -5.29,-3.55 -1.51,-1.5 -2.7,-3.25 -3.57,-5.27 -0.87,-2.02 -1.31,-4.16 -1.31,-6.44 0,-2.3 0.44,-4.46 1.31,-6.49 0.87,-2.03 2.06,-3.79 3.57,-5.29 1.51,-1.5 3.27,-2.68 5.29,-3.55 2.02,-0.87 4.17,-1.3 6.44,-1.3 2.44,0 4.7,0.48 6.77,1.43 2.08,0.95 3.88,2.26 5.41,3.93 v -3.2 c 0,-0.63 0.22,-1.14 0.65,-1.55 0.43,-0.41 0.95,-0.61 1.55,-0.61 0.6,0 1.12,0.2 1.55,0.61 0.4,0.39 0.62,0.91 0.62,1.54 z m -28.8,14.45 c 0,1.67 0.32,3.24 0.96,4.72 0.64,1.48 1.5,2.76 2.59,3.87 1.09,1.1 2.38,1.98 3.87,2.63 1.49,0.65 3.09,0.98 4.81,0.98 1.72,0 3.32,-0.33 4.81,-0.98 1.49,-0.65 2.77,-1.53 3.87,-2.63 1.09,-1.1 1.95,-2.39 2.58,-3.87 0.63,-1.47 0.94,-3.05 0.94,-4.72 0,-1.7 -0.31,-3.29 -0.94,-4.77 -0.63,-1.49 -1.49,-2.78 -2.58,-3.88 -1.09,-1.1 -2.38,-1.97 -3.87,-2.61 -1.49,-0.64 -3.09,-0.96 -4.81,-0.96 -1.7,0 -3.29,0.32 -4.77,0.96 -1.49,0.64 -2.78,1.51 -3.88,2.61 -1.1,1.1 -1.97,2.4 -2.61,3.88 -0.65,1.49 -0.97,3.08 -0.97,4.77 z"
   id="path16" />
	<path
   class="st0"
   d="m 760.07,622.77 c 0.19,1.46 0.62,2.82 1.31,4.08 0.68,1.25 1.55,2.35 2.59,3.27 1.04,0.93 2.24,1.66 3.59,2.19 1.35,0.53 2.77,0.8 4.28,0.8 1.86,0 3.54,-0.35 5.05,-1.06 1.51,-0.71 2.75,-1.65 3.73,-2.84 0.39,-0.32 0.77,-0.52 1.13,-0.57 0.36,-0.06 0.71,-0.03 1.06,0.09 0.42,0.14 0.74,0.43 0.98,0.87 0.32,0.39 0.48,0.87 0.47,1.43 -0.01,0.56 -0.29,1.07 -0.82,1.53 -0.63,0.7 -1.34,1.34 -2.12,1.92 -0.79,0.58 -1.67,1.09 -2.63,1.52 -0.96,0.43 -2.01,0.77 -3.15,1.01 -1.14,0.24 -2.37,0.37 -3.69,0.37 -2.3,0 -4.45,-0.44 -6.46,-1.31 -2.01,-0.87 -3.77,-2.05 -5.28,-3.55 -1.51,-1.5 -2.7,-3.26 -3.57,-5.28 -0.87,-2.02 -1.31,-4.18 -1.31,-6.48 0,-2.3 0.44,-4.45 1.31,-6.46 0.87,-2.01 2.06,-3.76 3.57,-5.26 1.51,-1.5 3.27,-2.68 5.28,-3.55 2.01,-0.87 4.16,-1.31 6.46,-1.31 2.28,0 4.42,0.43 6.44,1.29 2.02,0.86 3.78,2.03 5.28,3.52 1.5,1.49 2.69,3.23 3.57,5.24 0.88,2.01 1.34,4.15 1.36,6.43 0,0.6 -0.2,1.11 -0.59,1.52 -0.4,0.41 -0.91,0.61 -1.53,0.61 h -26.31 z m 23.93,-3.7 c -0.16,-1.51 -0.59,-2.92 -1.27,-4.23 -0.69,-1.31 -1.57,-2.45 -2.65,-3.41 -1.08,-0.96 -2.32,-1.72 -3.71,-2.26 -1.39,-0.54 -2.88,-0.82 -4.46,-0.82 -1.58,0 -3.06,0.28 -4.44,0.84 -1.38,0.56 -2.61,1.32 -3.67,2.28 -1.07,0.96 -1.94,2.1 -2.61,3.41 -0.67,1.31 -1.08,2.71 -1.22,4.2 H 784 Z"
   id="path17" />
	<path
   class="st0"
   d="m 797.86,609.92 c 1.58,-1.79 3.47,-3.2 5.68,-4.25 2.21,-1.04 4.58,-1.57 7.14,-1.57 h 0.28 c 0.74,0 1.31,0.21 1.71,0.61 0.39,0.41 0.59,0.93 0.59,1.56 0,0.66 -0.22,1.19 -0.66,1.6 -0.44,0.41 -0.99,0.61 -1.64,0.61 h -0.28 c -1.74,0 -3.39,0.34 -4.95,1.01 -1.56,0.67 -2.91,1.6 -4.07,2.77 -1.16,1.17 -2.08,2.55 -2.77,4.13 -0.69,1.58 -1.03,3.27 -1.03,5.09 v 13.23 c 0,0.63 -0.21,1.15 -0.63,1.58 -0.42,0.43 -0.93,0.64 -1.53,0.64 -0.6,0 -1.13,-0.22 -1.57,-0.65 -0.44,-0.43 -0.66,-0.96 -0.66,-1.59 V 606.3 c 0,-0.6 0.22,-1.12 0.66,-1.55 0.44,-0.43 0.96,-0.65 1.57,-0.65 0.63,0 1.14,0.22 1.55,0.65 0.41,0.43 0.61,0.95 0.61,1.55 z"
   id="path18" />
</g>

<g
   class="st1"
   id="g23"
   transform="translate(-170.42,-336)">
	<path
   class="st6"
   d="m 294.26,347.83 c 45.61,0 82.74,37 82.97,82.56 0.03,5.43 3.97,10.29 9.37,10.85 6.31,0.66 11.63,-4.27 11.63,-10.44 0,-57.33 -46.64,-103.97 -103.97,-103.97 -57.74,0 -104.6,47.32 -103.93,105.21 0,0.13 -0.03,0.24 -0.03,0.37 0.01,0.56 0.05,1.1 0.07,1.66 0.03,0.84 0.06,1.69 0.1,2.53 0.05,0.91 0.12,1.82 0.2,2.73 0.05,0.66 0.08,1.31 0.14,1.98 h 0.04 c 5.32,52.29 49.95,93.47 103.41,93.47 45.18,0 84.91,-28.86 98.88,-71.81 1.04,-3.2 0.49,-6.7 -1.49,-9.42 -1.98,-2.72 -5.14,-4.33 -8.5,-4.33 h -40.27 c -3.7,0 -7.13,1.95 -9.02,5.13 -8.41,14.1 -23.21,22.52 -39.59,22.52 -21.78,0 -40.07,-15.21 -44.84,-35.56 h 101.4 c 0.69,0 1.37,-0.08 2.02,-0.2 0.05,-0.01 0.09,-0.01 0.14,-0.02 0.62,-0.13 1.22,-0.32 1.8,-0.56 0.07,-0.03 0.14,-0.05 0.2,-0.08 0.56,-0.24 1.08,-0.53 1.58,-0.86 0.07,-0.05 0.15,-0.09 0.22,-0.14 0.48,-0.33 0.94,-0.71 1.36,-1.12 0.07,-0.06 0.13,-0.13 0.2,-0.2 0.41,-0.42 0.78,-0.87 1.11,-1.35 0.05,-0.08 0.1,-0.15 0.16,-0.23 0.32,-0.49 0.61,-1.01 0.85,-1.56 0.04,-0.08 0.07,-0.16 0.1,-0.24 0.23,-0.56 0.41,-1.14 0.54,-1.75 0.02,-0.07 0.02,-0.15 0.04,-0.22 0.12,-0.63 0.19,-1.27 0.19,-1.93 0,-0.02 0,-0.03 0,-0.04 0,-36.98 -30.09,-67.07 -67.07,-67.07 -33.41,0 -61.18,24.56 -66.24,56.57 h -16.07 c 5.17,-40.82 40.11,-72.48 82.3,-72.48 z m 0,150.04 c 21.45,0 41.71,-10.46 54.25,-27.65 h 18.78 c -14.27,26.54 -42.05,43.55 -73.03,43.55 -41.94,0 -77.07,-31.75 -82.28,-72.46 h 16.04 c 5.05,32 32.83,56.56 66.24,56.56 z m 0,-113.13 c 21.79,0 40.07,15.21 44.84,35.56 h -89.68 c 4.76,-20.36 23.05,-35.56 44.84,-35.56 z"
   id="path19" />
	<path
   class="st7"
   d="m 250.62,445.5 c -0.46,-1.37 -0.86,-2.77 -1.2,-4.2 h -21.38 c 0.23,1.41 0.48,2.82 0.79,4.2 0,0 0,0 0,0 z m -22.6,-25.2 h 21.4 c 0.33,-1.43 0.73,-2.83 1.2,-4.2 h -21.78 c -0.32,1.38 -0.6,2.78 -0.82,4.2 z"
   id="path20" />
	<path
   class="st7"
   d="m 211.98,441.3 c 0,0 -2.59,-8.56 -0.02,-21.01 h 4.86 c 0,0 -2.7,7.74 0,21.01 z"
   id="path21" />
	<g
   class="st3"
   id="g22">
		<path
   class="st8"
   d="M 237.7,430.8"
   id="path22" />
	</g>
	<path
   class="st9"
   d="m 294.26,335.23 c -52.7,0 -95.57,42.87 -95.57,95.59 l 0.01,1.46 c 0.79,51.88 43.65,94.09 95.56,94.09 41.53,0 78.05,-26.53 90.89,-66 0.21,-0.64 0.1,-1.34 -0.3,-1.89 -0.4,-0.54 -1.03,-0.87 -1.7,-0.87 h -40.27 c -0.74,0 -1.43,0.39 -1.8,1.03 -9.79,16.42 -27.72,26.62 -46.81,26.62 -26.06,0 -48.46,-18.47 -53.44,-43.96 h -4.21 c 0,0.13 -0.03,0.26 -0.01,0.39 5.2,27.68 29.45,47.77 57.66,47.77 20.16,0 39.12,-10.56 49.79,-27.65 h 36.15 c -13.04,36.22 -47.22,60.35 -85.95,60.35 -49.4,0 -90.22,-39.99 -91.33,-89.27 h 147.89 c 1.16,0 2.1,-0.94 2.1,-2.1 0,-32.35 -26.32,-58.66 -58.67,-58.66 -27.75,0 -52.25,19.64 -57.47,46.84 -0.09,0.46 -0.15,0.89 -0.21,1.32 h 4.21 c 0.05,-0.2 0.09,-0.37 0.11,-0.48 5.16,-25.2 27.6,-43.48 53.36,-43.48 29.33,0 53.32,23.3 54.42,52.36 H 202.93 c 1.12,-49.41 41.64,-89.27 91.32,-89.27 50.38,0 91.37,40.99 91.37,91.37 0,1.16 0.94,2.1 2.1,2.1 1.16,0 2.1,-0.94 2.1,-2.1 0.01,-52.69 -42.86,-95.56 -95.56,-95.56 z"
   id="path23" />
</g>
<g
   id="g31"
   transform="translate(-170.42,-336)">
	<g
   class="st10"
   id="g24">
		
			<radialGradient
   id="SVGID_1_"
   cx="358.0777"
   cy="618.94879"
   r="130.1235"
   gradientTransform="matrix(2.9677,0,0,0.0875,-550.6718,496.3871)"
   gradientUnits="userSpaceOnUse">
			<stop
   offset="0"
   style="stop-color:#000000"
   id="stop23" />
			<stop
   offset="1"
   style="stop-color:#000000;stop-opacity:0"
   id="stop24" />
		</radialGradient>
		<path
   class="st11"
   d="m 853.58,550.53 c 0,6.89 -152.93,12.47 -341.58,12.47 -188.65,0 -341.58,-5.58 -341.58,-12.47 0,-6.89 152.93,-12.47 341.58,-12.47 188.65,0.01 341.58,5.59 341.58,12.47 z"
   id="path24"
   style="fill:url(#SVGID_1_)" />
	</g>
	<path
   class="st0"
   d="m 353.19,511.85 h -73.47 c -38.6,0 -70,-33.21 -70,-74.02 0,-40.82 31.4,-74.03 70,-74.03 h 73.47 c 7.58,0 13.74,-6.16 13.74,-13.74 0,-7.58 -6.16,-13.74 -13.74,-13.74 h -73.47 c -53.75,0 -97.48,45.53 -97.48,101.5 0,55.97 43.73,101.5 97.48,101.5 h 73.47 c 7.58,0 13.74,-6.16 13.74,-13.74 0,-7.57 -6.16,-13.73 -13.74,-13.73 z"
   id="path25" />
	<path
   class="st0"
   d="m 284.08,418.38 c -9.13,0 -16.55,7.43 -16.55,16.55 0,9.12 7.43,16.55 16.55,16.55 h 55.26 c 9.13,0 16.55,-7.43 16.55,-16.55 0,-9.12 -7.43,-16.55 -16.55,-16.55 z"
   id="path26" />
	<g
   id="g28">
		<g
   id="g27">
			<path
   class="st0"
   d="m 798.8,340.76 c -3.84,-2.57 -9.32,-3.88 -16.3,-3.88 h -7.22 v 183.49 c 0,6.59 1.37,11.44 4.04,14.4 2.61,2.89 5.76,4.23 9.89,4.23 4.45,0 7.84,-1.38 10.37,-4.21 2.65,-2.97 4,-7.82 4,-14.42 V 354.81 c 0,-7.2 -1.61,-11.93 -4.78,-14.05 z m -44.64,-2.12 c -2.3,0.93 -3.91,2.51 -5.06,4.99 -1.58,3.41 -3.43,9.21 -5.54,17.24 L 708.01,494.92 672.46,360.89 c -2.11,-8.06 -3.97,-13.86 -5.55,-17.26 -1.14,-2.49 -2.75,-4.06 -5.06,-4.99 -2.01,-0.8 -6.27,-1.76 -15.21,-1.76 h -4.9 l 43.03,171.03 c 1.13,4.35 2.24,8.53 3.33,12.56 0.97,3.59 2.31,6.89 3.98,9.81 1.47,2.57 3.5,4.64 6.19,6.33 2.55,1.59 5.82,2.4 9.74,2.4 5.25,0 9.12,-1.18 11.85,-3.63 3.04,-2.74 5.06,-5.62 6.14,-8.82 1.33,-3.88 3.08,-10.16 5.23,-18.64 l 43.04,-171.04 h -4.9 c -8.94,0 -13.21,0.96 -15.21,1.76 z m -136.95,2.12 c -3.17,2.12 -4.77,6.85 -4.77,14.05 v 165.55 c 0,6.67 1.35,11.53 4.02,14.44 2.61,2.86 5.81,4.19 10.05,4.19 4.41,0 7.66,-1.33 10.22,-4.21 2.66,-2.97 4,-7.82 4,-14.42 V 336.88 h -7.22 c -6.98,0 -12.46,1.31 -16.3,3.88 z"
   id="path27" />
		</g>
	</g>
	<g
   id="g30">
		<path
   class="st0"
   d="m 456.08,418.38 c -9.13,0 -16.55,7.43 -16.55,16.55 0,9.12 7.43,16.55 16.55,16.55 h 55.26 c 9.13,0 16.55,-7.43 16.55,-16.55 0,-9.12 -7.43,-16.55 -16.55,-16.55 z"
   id="path28" />
		<path
   class="st0"
   d="m 555.58,539 v 0 c -7.73,0 -14,-6.27 -14,-14 V 350 c 0,-7.73 6.27,-14 14,-14 v 0 c 7.73,0 14,6.27 14,14 v 175 c 0,7.73 -6.27,14 -14,14 z"
   id="path29" />
		<path
   class="st0"
   d="m 411.58,539 v 0 c -7.73,0 -14,-6.27 -14,-14 V 350 c 0,-7.73 6.27,-14 14,-14 v 0 c 7.73,0 14,6.27 14,14 v 175 c 0,7.73 -6.27,14 -14,14 z"
   id="path30" />
	</g>
</g>
</svg>
